<svg id="Слой_1" data-name="Слой 1" xmlns="http://www.w3.org/2000/svg" xmlns:xlink="http://www.w3.org/1999/xlink" viewBox="0 0 2704 1520"><defs><style>.cls-1{fill:url(#Безымянный_градиент_2);}.cls-2{fill:none;clip-path:url(#clip-path);}.cls-3{clip-path:url(#clip-path-2);}.cls-4{fill:#f6f8e2;opacity:0.35;}.cls-12,.cls-15,.cls-4{fill-rule:evenodd;}.cls-5{fill:url(#Безымянный_градиент_3);}.cls-6,.cls-7{opacity:0.26;}.cls-6{fill:url(#Безымянный_градиент_3-2);}.cls-7{fill:url(#Безымянный_градиент_3-3);}.cls-8{fill:url(#Безымянный_градиент_6);}.cls-9{fill:url(#Безымянный_градиент_6-2);}.cls-10{fill:url(#Безымянный_градиент_6-3);}.cls-11{fill:url(#Безымянный_градиент_8);}.cls-12{fill:url(#Безымянный_градиент_6-4);}.cls-13{fill:url(#Безымянный_градиент_6-5);}.cls-14{fill:url(#Безымянный_градиент_6-6);}.cls-15{fill:url(#Безымянный_градиент_6-7);}.cls-16{fill:url(#Безымянный_градиент_6-8);}.cls-17{fill:url(#Безымянный_градиент_6-9);}.cls-18{fill:url(#Безымянный_градиент_6-10);}.cls-19{fill:url(#Безымянный_градиент_6-11);}.cls-20{fill:url(#Безымянный_градиент_6-12);}.cls-21{fill:url(#Безымянный_градиент_6-13);}.cls-22{fill:url(#Безымянный_градиент_6-14);}.cls-23{fill:url(#Безымянный_градиент_4);}.cls-24{fill:url(#Безымянный_градиент_4-2);}.cls-25{fill:url(#Безымянный_градиент_4-3);}.cls-26{fill:url(#Безымянный_градиент_4-4);}.cls-27{fill:url(#Безымянный_градиент_4-5);}.cls-28{fill:url(#Безымянный_градиент_4-6);}.cls-29{fill:url(#Безымянный_градиент_4-7);}.cls-30{fill:url(#Безымянный_градиент_4-8);}.cls-31{fill:url(#Безымянный_градиент_12);}.cls-32{fill:url(#Безымянный_градиент_7);}.cls-33{fill:url(#Безымянный_градиент_7-2);}.cls-34{fill:url(#Безымянный_градиент_7-3);}.cls-35{fill:url(#Безымянный_градиент_7-4);}.cls-36{fill:url(#Безымянный_градиент_7-5);}.cls-37{fill:url(#Безымянный_градиент_7-6);}.cls-38{fill:url(#Безымянный_градиент_12-2);}.cls-39{fill:url(#Безымянный_градиент_7-7);}.cls-40{fill:url(#Безымянный_градиент_7-8);}.cls-41{fill:url(#Безымянный_градиент_7-9);}.cls-42{fill:url(#Безымянный_градиент_7-10);}.cls-43{fill:url(#Безымянный_градиент_7-11);}.cls-44{fill:url(#Безымянный_градиент_7-12);}.cls-45{fill:url(#Безымянный_градиент_12-3);}.cls-46{fill:url(#Безымянный_градиент_7-13);}.cls-47{fill:url(#Безымянный_градиент_7-14);}.cls-48{fill:url(#Безымянный_градиент_7-15);}.cls-49{fill:#fff;}.cls-50{fill:#b71104;}.cls-51{fill:#f61b03;}.cls-52{fill:#9d9ea0;}.cls-53{fill:#253546;}.cls-54{fill:#15212b;}.cls-55{fill:#dd1607;}</style><linearGradient id="Безымянный_градиент_2" x1="1361.77" y1="32.41" x2="1353.39" y2="656.65" gradientUnits="userSpaceOnUse"><stop offset="0" stop-color="#93d3c3"/><stop offset="1" stop-color="#fbf69b"/></linearGradient><clipPath id="clip-path"><rect class="cls-1" width="2704" height="1520"/></clipPath><clipPath id="clip-path-2"><path class="cls-2" d="M2704,1520H-1456.26V0H2704Z"/></clipPath><linearGradient id="Безымянный_градиент_3" x1="664.08" y1="-15154.8" x2="689.21" y2="-19752.85" gradientTransform="matrix(1, 0, 0, -0.33, 0, -3699.88)" gradientUnits="userSpaceOnUse"><stop offset="0" stop-color="#fcee5a"/><stop offset="0.52" stop-color="#33431c"/></linearGradient><linearGradient id="Безымянный_градиент_3-2" x1="654" y1="-13709.38" x2="680.46" y2="-18551.5" xlink:href="#Безымянный_градиент_3"/><linearGradient id="Безымянный_градиент_3-3" x1="1488.83" y1="-14156.92" x2="1515.29" y2="-18999.03" xlink:href="#Безымянный_градиент_3"/><linearGradient id="Безымянный_градиент_6" x1="2293.9" y1="1773.3" x2="2329.46" y2="484.79" gradientUnits="userSpaceOnUse"><stop offset="0" stop-color="#30a0c5"/><stop offset="1" stop-color="#fff"/></linearGradient><linearGradient id="Безымянный_градиент_6-2" x1="1277.08" y1="958.52" x2="1621.54" y2="958.52" xlink:href="#Безымянный_градиент_6"/><linearGradient id="Безымянный_градиент_6-3" x1="1269.15" y1="976.72" x2="1979.03" y2="976.72" xlink:href="#Безымянный_градиент_6"/><linearGradient id="Безымянный_градиент_8" x1="701.81" y1="1065.18" x2="1545.63" y2="1065.18" xlink:href="#Безымянный_градиент_6"/><linearGradient id="Безымянный_градиент_6-4" x1="1403.31" y1="1029.94" x2="1558.75" y2="293.08" xlink:href="#Безымянный_градиент_6"/><linearGradient id="Безымянный_градиент_6-5" x1="1481.6" y1="830.8" x2="2395.6" y2="830.8" xlink:href="#Безымянный_градиент_6"/><linearGradient id="Безымянный_градиент_6-6" x1="1748.82" y1="813.8" x2="2906.05" y2="813.8" xlink:href="#Безымянный_градиент_6"/><linearGradient id="Безымянный_градиент_6-7" x1="1600.46" y1="859.68" x2="2639.99" y2="859.68" xlink:href="#Безымянный_градиент_6"/><linearGradient id="Безымянный_градиент_6-8" x1="-114.86" y1="807.81" x2="1133.31" y2="807.81" xlink:href="#Безымянный_градиент_6"/><linearGradient id="Безымянный_градиент_6-9" x1="20.33" y1="761.98" x2="468.75" y2="761.98" xlink:href="#Безымянный_градиент_6"/><linearGradient id="Безымянный_градиент_6-10" x1="451.25" y1="1036.13" x2="1108.53" y2="1036.13" xlink:href="#Безымянный_градиент_6"/><linearGradient id="Безымянный_градиент_6-11" x1="588.04" y1="989.85" x2="862.69" y2="989.85" xlink:href="#Безымянный_градиент_6"/><linearGradient id="Безымянный_градиент_6-12" x1="677.89" y1="-11194.74" x2="697.5" y2="-14783.42" gradientTransform="matrix(1, 0, 0, -0.33, 0, -3699.88)" xlink:href="#Безымянный_градиент_6"/><linearGradient id="Безымянный_градиент_6-13" x1="682.45" y1="-12339.48" x2="703.07" y2="-16114.04" gradientTransform="matrix(1, 0, 0, -0.33, 0, -3699.88)" xlink:href="#Безымянный_градиент_6"/><linearGradient id="Безымянный_градиент_6-14" x1="1032.15" y1="-10078.7" x2="1063.78" y2="-15867.32" gradientTransform="matrix(1, 0, 0, -0.33, 0, -3699.88)" xlink:href="#Безымянный_градиент_6"/><linearGradient id="Безымянный_градиент_4" x1="135.85" y1="1104.03" x2="263.34" y2="1056.86" gradientUnits="userSpaceOnUse"><stop offset="0" stop-color="#33431c"/><stop offset="1" stop-color="#fcee5a"/></linearGradient><linearGradient id="Безымянный_градиент_4-2" x1="398.86" y1="1115.35" x2="526.35" y2="1068.17" xlink:href="#Безымянный_градиент_4"/><linearGradient id="Безымянный_градиент_4-3" x1="1009.86" y1="1129.39" x2="1089.92" y2="1099.77" xlink:href="#Безымянный_градиент_4"/><linearGradient id="Безымянный_градиент_4-4" x1="1059.82" y1="1119.56" x2="1139.88" y2="1089.94" xlink:href="#Безымянный_градиент_4"/><linearGradient id="Безымянный_градиент_4-5" x1="568.2" y1="1174.37" x2="775.9" y2="1097.51" xlink:href="#Безымянный_градиент_4"/><linearGradient id="Безымянный_градиент_4-6" x1="651.7" y1="1185.74" x2="859.39" y2="1108.88" xlink:href="#Безымянный_градиент_4"/><linearGradient id="Безымянный_градиент_4-7" x1="99.16" y1="1137.97" x2="226.65" y2="1090.8" xlink:href="#Безымянный_градиент_4"/><linearGradient id="Безымянный_градиент_4-8" x1="276.13" y1="1102.25" x2="359.97" y2="1071.23" xlink:href="#Безымянный_градиент_4"/><linearGradient id="Безымянный_градиент_12" x1="1593.3" y1="709.75" x2="2722.97" y2="291.74" gradientUnits="userSpaceOnUse"><stop offset="0" stop-color="#563114"/><stop offset="1" stop-color="#744d30"/></linearGradient><linearGradient id="Безымянный_градиент_7" x1="1689.82" y1="950.35" x2="2233.1" y2="-246.88" xlink:href="#Безымянный_градиент_4"/><linearGradient id="Безымянный_градиент_7-2" x1="1709.15" y1="778.63" x2="2189.3" y2="-279.48" xlink:href="#Безымянный_градиент_4"/><linearGradient id="Безымянный_градиент_7-3" x1="1698.7" y1="584.95" x2="2097.9" y2="-294.75" xlink:href="#Безымянный_градиент_4"/><linearGradient id="Безымянный_градиент_7-4" x1="1710.88" y1="405.88" x2="2023.07" y2="-282.1" xlink:href="#Безымянный_градиент_4"/><linearGradient id="Безымянный_градиент_7-5" x1="1586.14" y1="315.07" x2="2263.59" y2="-565.96" xlink:href="#Безымянный_градиент_4"/><linearGradient id="Безымянный_градиент_7-6" x1="1316.31" y1="638.43" x2="2393.81" y2="-762.89" xlink:href="#Безымянный_градиент_4"/><linearGradient id="Безымянный_градиент_12-2" x1="2116.31" y1="696" x2="3245.98" y2="277.99" gradientTransform="matrix(-1, 0, 0, 1, 4836.03, 0)" xlink:href="#Безымянный_градиент_12"/><linearGradient id="Безымянный_градиент_7-7" x1="2539.42" y1="939.17" x2="3076.17" y2="-243.67" gradientTransform="translate(-69.76)" xlink:href="#Безымянный_градиент_4"/><linearGradient id="Безымянный_градиент_7-8" x1="2229.55" y1="741.35" x2="2709.7" y2="-316.76" gradientTransform="matrix(-1, 0, 0, 1, 4836.03, 0)" xlink:href="#Безымянный_градиент_4"/><linearGradient id="Безымянный_градиент_7-9" x1="2219.1" y1="564.14" x2="2618.29" y2="-315.56" gradientTransform="matrix(-1, 0, 0, 1, 4836.03, 0)" xlink:href="#Безымянный_градиент_4"/><linearGradient id="Безымянный_градиент_7-10" x1="2231.28" y1="385.07" x2="2543.47" y2="-302.91" gradientTransform="matrix(-1, 0, 0, 1, 4836.03, 0)" xlink:href="#Безымянный_градиент_4"/><linearGradient id="Безымянный_градиент_7-11" x1="2106.54" y1="294.26" x2="2783.98" y2="-586.77" gradientTransform="matrix(-1, 0, 0, 1, 4836.03, 0)" xlink:href="#Безымянный_градиент_4"/><linearGradient id="Безымянный_градиент_7-12" x1="1816.83" y1="630.53" x2="2824.32" y2="-679.74" gradientTransform="matrix(-1, 0, 0, 1, 4836.03, 0)" xlink:href="#Безымянный_градиент_4"/><linearGradient id="Безымянный_градиент_12-3" x1="4309.43" y1="469.2" x2="5932.04" y2="-131.22" gradientTransform="matrix(-1, 0, 0, 1, 4836.03, 0)" xlink:href="#Безымянный_градиент_12"/><linearGradient id="Безымянный_градиент_7-13" x1="237.18" y1="818.47" x2="1008.15" y2="-880.51" gradientTransform="translate(-69.76)" xlink:href="#Безымянный_градиент_4"/><linearGradient id="Безымянный_градиент_7-14" x1="4472.08" y1="534.32" x2="5161.75" y2="-985.5" gradientTransform="matrix(-1, 0, 0, 1, 4836.03, 0)" xlink:href="#Безымянный_градиент_4"/><linearGradient id="Безымянный_градиент_7-15" x1="4457.07" y1="279.8" x2="5030.45" y2="-983.78" gradientTransform="matrix(-1, 0, 0, 1, 4836.03, 0)" xlink:href="#Безымянный_градиент_4"/></defs><rect class="cls-1" width="2704" height="1520"/><g class="cls-3"><path class="cls-4" d="M450.09,223.64s70.1-61.75,97.76-70.57,27.66,35.28,73.75,35.28,55.32-44.1,110.64-35.28c16.27,2.6,54.62,25.86,82.38,34.7,15.72,5,55.72-9.92,68.17,0,45,35.87,65.6,35.87,65.6,35.87Z"/><path class="cls-4" d="M298.13,315.11C318,292,332.41,288.19,342.08,289.23c13.69,1.47,17.66,12.58,33.15,12.94,15.11.34,16.64-10.1,35.51-12.55,19.13-2.48,35,6,40.42,9.27a63.5,63.5,0,0,1,18.56,17.05Z"/><path class="cls-4" d="M1045.52,172.57s52.3-46.06,72.93-52.64,20.63,26.32,55,26.32,41.26-32.9,82.53-26.32c12.14,1.93,40.75,19.29,61.45,25.88,11.73,3.73,41.57-7.4,50.85,0,33.58,26.76,48.94,26.76,48.94,26.76Z"/><path class="cls-4" d="M1638.9,325.46s52.29-46.06,72.93-52.64,20.63,26.32,55,26.32,41.27-32.9,82.53-26.32c12.14,1.94,40.75,19.3,61.46,25.89,11.72,3.73,41.56-7.4,50.85,0,33.57,26.75,48.93,26.75,48.93,26.75Z"/><path class="cls-4" d="M2220.71,227.94s52.3-37.58,72.93-42.95,20.63,21.47,55,21.47,41.26-26.84,82.52-21.47c12.15,1.58,40.76,15.74,61.46,21.12,11.72,3,41.57-6,50.85,0,33.57,21.83,48.94,21.83,48.94,21.83Z"/><path class="cls-5" d="M-1519.75,1036.4l-50.91,888,4491,5.65L2899.4,1065.6l-895.61,11.73C628.5,1095.34,359,1098.93,1.11,1094.71-364,1090.41-885.35,1077.24-1519.75,1036.4Z"/><path class="cls-6" d="M-1535.71,1314.82l-35,741.1,4491,5.66-20.95-864.47a1204.56,1204.56,0,0,1-296.55,41.49c-174.29,2.38-252.14-35.13-424.21-38.17-146.47-2.6-221.26,22.25-347.86,42.42-273,43.48-488.4,17.64-761.16-15.1-467.41-56.09-553.77-161.48-792.76-83.45-82.09,26.81-265.77,102.22-275.75,81.92-5.63-11.45,50.87-39.43,48-55.49C38.41,1111.55-779.07,1211-1535.71,1314.82Z"/><path class="cls-7" d="M-700.88,1461.88l-35,741.1,4491,5.66-20.95-864.47a1204.55,1204.55,0,0,1-296.55,41.5c-174.29,2.38-252.14-35.13-424.21-38.18-146.47-2.6-221.26,22.25-347.86,42.42-273,43.48-488.4,17.64-761.16-15.1-467.41-56.09-553.77-161.48-792.76-83.45-82.09,26.81-265.77,102.22-275.75,81.92-5.63-11.45,50.87-39.43,48-55.49C873.24,1258.61,55.76,1358.08-700.88,1461.88Z"/><path class="cls-8" d="M1971.63,799l72.57-83.27,29.25,8.3,32.31-6.28,90.94,17.53L2336,596.74l391,368.57c-402.21,79.82-826.16,163.61-826,162,0,0,0,0,.07,0C1911.75,1123,1971.63,799,1971.63,799Z"/><polygon class="cls-9" points="1277.08 969.06 1315.44 906.38 1322.15 906.01 1363.41 901.13 1429.22 761.37 1450 777.85 1621.54 1064.3 1348.38 1155.66 1277.08 969.06"/><path class="cls-10" d="M1979,1220.32l-222.7-508.23-197.5,188.14-75.14,50.19-33.38,5-30.08-5.28-61.34,48.47-14.17,11.2s-64.35,228.14-75.44,231.27S1979,1220.32,1979,1220.32Z"/><path class="cls-11" d="M751.3,1095.4l50.83-58.31,20.48,5.81,22.63-4.4,50.66-48.84,132.7-184.58,517,354.2s-851.27,168.9-843.77,166S751.3,1095.4,751.3,1095.4Z"/><path class="cls-12" d="M981.31,1165.23l673.16-2.84,102.63-126.88,35.59,13.7L1716.54,880l-9.93-69.65,49.72-98.3-197.5,188.14-75.14,50.19-33.38,5-30.08-5.28L1293.7,1054.94Z"/><path class="cls-13" d="M1903.77,803l54.76-89.5,9.58-.52,58.92-7,94-199.57L2150.67,530,2395.6,939l-390,130.46-524,85.68Z"/><path class="cls-14" d="M2906.05,1161.78l-318-725.68-282,268.64-107.3,71.66-47.65,7.11-43-7.54-56.36,80.1L2000,929.57l-91.5-.1-159.72,175.47c113.25,65.68,144.16,85,143.8,86.46,0,.1-.18.1-.18.1C1892.35,1191.69,2360.83,1177.89,2906.05,1161.78Z"/><path class="cls-15" d="M1600.46,1283.26l842.16-204.2,146.54-181.15L2640,917.46,2531.25,675.91l-14.18-99.45,71-140.36-282,268.64-75,102.54-79.51,14.85-41.87-29.7q-40.22,90.51-80.45,181L1905,928.18Z"/><polygon class="cls-16" points="1133.31 1238.91 194.25 1226.2 194.41 1146.11 -114.86 1105.72 195.64 554.01 319.53 380.66 321.53 377.86 322.36 376.7 349.09 400.17 416.14 586.55 416.8 586.31 445.19 575.69 447.27 574.91 457.65 599.26 469.22 599.26 584.56 861.9 640.43 940.27 650.8 940.27 857.14 824.83 1126.51 1163.7 1133.31 1238.91"/><path class="cls-17" d="M454.48,886.7l-5.92-43.91,20.19,17.69-40.39-216.6L438.59,635l17.51,18.68-10.91-78-.13-1L416.8,586.31l-.56.22L311,759.77,296.16,604.88l9.42-9.5,6.73-16.06,9.15,25.56-9.15-94.37,9.15-16.39,12.66,11.8L321.53,377.86l-2,2.8L195.64,554q-33.22,95.78-66.47,191.55,25.67,27.75,51.34,55.48l-60-30.55Q70.44,914.84,20.33,1059.2l174.37-51.05-.29,138,212.41-117.19,13.46,9.83L397.4,768.07l9.42-3ZM272.2,823.65l-61.35,101,5.06-306.31,11-4.79,12.43,48.7,35.55-35.88C274.09,678,272.63,775.28,272.2,823.65Z"/><polygon class="cls-18" points="526.38 1202.59 526.38 1191.45 492.72 1191.45 451.25 1169.17 463.1 1150.82 463.37 1128.21 484.1 913.24 517.32 1054.56 538.43 1044.65 572.15 997.13 582.03 984.69 563.26 935.2 592.33 971.71 602.85 958.46 650.78 940.11 683.16 921.77 853.8 825.09 862.69 971.57 849.5 971.57 852.73 1005.98 834.69 1040.71 871.31 1146.88 824.46 1189.81 1065.99 1225.53 1108.53 1247.16 463.1 1243.23 526.38 1202.59"/><polygon class="cls-19" points="849.5 971.57 608.5 1044.65 588.04 1040.71 852.73 940.77 860.48 935.05 862.69 971.57 849.5 971.57"/><path class="cls-20" d="M-1503.95,1057.13l-51.3,691.28,4525.21,4.4-21.1-672.94L2046.42,1089c-1385.76,14-1657.36,16.82-2017.93,13.54C-339.36,1099.18-864.72,1088.92-1503.95,1057.13Z"/><path class="cls-21" d="M-1520,1273.87q-17.6,288.45-35.21,576.91L2970,1855.19l-21.1-672.95a1548.84,1548.84,0,0,1-298.81,32.3c-175.62,1.85-254.07-27.35-427.45-29.72-147.58-2-222.94,17.32-350.5,33-275.08,33.86-492.12,13.73-767-11.75-471-43.66-558-125.7-798.8-65C223.62,1162,38.54,1220.7,28.49,1204.9c-5.67-8.92,51.26-30.69,48.34-43.2C66.08,1115.64-757.63,1193.07-1520,1273.87Z"/><path class="cls-22" d="M-1791.71,1571.44c-79.52,427.67,205.49,804.17,545.68,845.81,257.1,31.47,531.68-130,665.36-404.66l4525.2,4.41q-10.55-336.48-21.1-672.95a1548.74,1548.74,0,0,1-298.81,32.3c-175.62,1.86-254.06-27.34-427.45-29.72-147.58-2-222.94,17.33-350.5,33-275.08,33.85-492.12,13.73-767-11.75-471-43.67-558-125.71-798.79-65-82.72,20.87-267.8,79.57-277.86,63.77-5.42-8.53,49.76-32.57,48.34-43.19C1044.68,1273.07-222.52,1397.93-1791.71,1571.44Z"/><path class="cls-23" d="M162.94,1033.19q-5.5,15.66-11,31.31l6.35-2.2-7.58,8.07-8.45,23.28,6.49-3-9.6,11.56q-3.83,10.51-7.63,21l10.14-1.76-13,9.54q-1.95,5.38-3.91,10.76h73.38q-4.62-14.24-9.23-28.47l-10.82-9.93,9.12,4.71q-4.51-13.95-9-27.89l-9.38-10.08,7.23,3.46Q169.5,1053.4,162.94,1033.19Z"/><path class="cls-24" d="M426,1044.51q-5.49,15.65-11,31.31l6.36-2.21-7.59,8.07q-4.22,11.64-8.45,23.28l6.5-3-9.61,11.55q-3.82,10.51-7.63,21l10.14-1.76-13,9.54-3.9,10.77h73.37q-4.6-14.25-9.23-28.48l-10.82-9.93,9.13,4.71q-4.53-13.94-9.05-27.88-4.68-5.05-9.38-10.09l7.24,3.47Z"/><path class="cls-25" d="M1026.87,1084.91q-3.45,9.83-6.91,19.66l4-1.39-4.76,5.07-5.31,14.62L1018,1121l-6,7.26q-2.38,6.6-4.79,13.2l6.37-1.1-8.14,6-2.45,6.76H1049l-5.8-17.88-6.8-6.24,5.73,3-5.67-17.52-5.9-6.33,4.55,2.18Q1031,1097.59,1026.87,1084.91Z"/><path class="cls-26" d="M1076.83,1075.08q-3.45,9.83-6.91,19.66l4-1.39-4.76,5.07-5.31,14.62,4.08-1.87-6,7.26q-2.4,6.6-4.79,13.2l6.37-1.1-8.15,6-2.45,6.76H1099l-5.8-17.88-6.8-6.24,5.74,3q-2.85-8.76-5.68-17.52l-5.89-6.33,4.54,2.18Q1080.95,1087.76,1076.83,1075.08Z"/><path class="cls-27" d="M612.34,1059q-9,25.51-17.93,51l10.35-3.59-12.35,13.15-13.76,37.92,10.57-4.85q-7.82,9.42-15.65,18.83l-12.43,34.24,16.53-2.86-21.13,15.53-6.36,17.54H669.71q-7.51-23.19-15-46.38L637,1173.32l14.87,7.67-14.73-45.43-15.28-16.43,11.78,5.64Q623,1091.88,612.34,1059Z"/><path class="cls-28" d="M695.83,1070.33q-9,25.51-17.92,51l10.35-3.59-12.35,13.15q-6.88,19-13.76,37.92l10.57-4.85-15.65,18.83L644.64,1217l16.53-2.86q-10.57,7.75-21.13,15.53-3.18,8.77-6.37,17.54H753.21q-7.51-23.19-15-46.38l-17.63-16.18,14.87,7.67-14.73-45.43L705.4,1130.5l11.78,5.64Q706.5,1103.24,695.83,1070.33Z"/><path class="cls-29" d="M126.25,1067.13l-11,31.31,6.35-2.2-7.58,8.07q-4.22,11.64-8.45,23.28l6.5-3-9.61,11.56q-3.83,10.51-7.63,21l10.14-1.76L92,1165l-3.9,10.76h73.37q-4.62-14.24-9.23-28.47l-10.82-9.93,9.13,4.71-9.05-27.89-9.38-10.09,7.23,3.47Q132.81,1087.32,126.25,1067.13Z"/><path class="cls-30" d="M293.94,1055.67l-7.23,20.59,4.18-1.45-5,5.31q-2.77,7.65-5.56,15.3l4.27-2-6.31,7.6q-2.52,6.92-5,13.82l6.67-1.15-8.53,6.27-2.57,7.08h48.26L311,1108.36l-7.11-6.53,6,3.1q-3-9.17-5.95-18.34L297.8,1080l4.76,2.27Q298.26,1069,293.94,1055.67Z"/><path class="cls-31" d="M1801.67,1404.31c26.61,7.63,33.15,10.46,32.69,11.39-.86,1.71-24.59-4.77-33.44,1.88-5.87,4.41.37,10.41-4.18,13.2-10.14,6.22-44.42-21.42-79.42-16-12.6,1.94-11.41,6-30.65,10.37-22.18,5-48.24,5.1-50.16.94-1-2.2,3.85-7.45,47.37-21.76q22.53-587.77,48.67-1175.47,8.29-186.63,17-373.3Q1763,28.76,1776.39,202,1789,803.14,1801.67,1404.31Z"/><path class="cls-32" d="M2105.34,751.93c-28.88,3.8-57.75,9.78-85.92,16.66,3.16-1.83,6.2-3.69,9-5.64,11.19-7.71,28.75-19.7,30-31.23.24-2.52-3.51-2.46-5.73-1.05-24.59,15.61-65.87,24.84-100.76,31.19,8.83-4.24,15-9,14.06-14.13-1.68-9.1-31.85-5.18-59,.15a10,10,0,0,1-.74-.69c5.46-2.17,10.88-4.35,16.38-6.47,13.39-5.26,31.18-10.07,40.9-18.48,1.05-.86,2.22-2.33,1.32-3.44-6.59-8.26-36.05-.73-45.73.91-9.9,1.62-19.59,3.57-29.26,5.62,12.44-7.13,21.38-14.15,15.72-17.66-11.39-7-39,2.29-50.65,5.61a218.56,218.56,0,0,0-41.59,16.78h-4.32c9.55-11.56,16.3-24.25-.63-24.6-16.35-.35-30.17,8-42.49,17.11h0c-1.72-6.8-5.08-13.29-11-20-4.44-5-12.57-10.31-20.72-5.49-6.79,4-5.51,12.19-5,17.55.08,1,.23,2.08.35,3.1-23.77-1.88-50.26-.69-67.11,10.45-.47.28-.86.61-1.29.9-21.89-.84-43.82-3-65.44-4.84-16.66-1.44-50.25-10.69-66.53-4.09-9.52,3.85-6.36,11.93.24,16.66a136.83,136.83,0,0,0,27.15,15.52c-18.61-1.92-37.11-3.88-55.67-5.74-12.22-1.24-24.71-1.66-37-1.91-9.4-.21-17.59,3.27-26.1,3.22a5.46,5.46,0,0,0-4.26,2.56c-6.86,10.79,18.74,16.48,41.52,19.73-.82.13-1.68.27-2.5.43-34.88,2.15-73.39,6-96.72,20.56-1.25.73-3.24,2.55-2,3.68a17.11,17.11,0,0,0,6.63,3.62c-8.08,6.22-10.85,13.28-5.15,21.34a227.7,227.7,0,0,0,38.43-6.4,17.8,17.8,0,0,0-1.4,1.83,1.6,1.6,0,0,0,.51,2.3c10.77,7.62,45.73-6.06,55.71-9.12,7.11-2.14,14.87-4.35,22.64-6.8-2.38,2.22-4.72,4.42-7.14,6.43-7.92,6.57-10.38,13.86,6,13.41,21.57-.55,44.91-8,65.55-18.46a3,3,0,0,0,2.42.41c15.49-2.84,31-5.93,46-10-25.09,13.26-54,30.08-46,33.11,12.72,4.87,35-1.66,48.11-4.19a404.32,404.32,0,0,0,43.12-11.19c-9.67,10.28-18.73,23.49-11.28,33.32a2.54,2.54,0,0,0,2.23.75c7.88-1.14,11.82-5.05,17.94-8.48,3.83-2.11,7.42-4.44,11.08-6.72-1.67,3.71-1.71,7.15,1.18,9.42a4.54,4.54,0,0,0,3.12.15c20.45-4.09,40.69-15.13,59.39-22,1.44-.5,2.76-1.05,4.18-1.58-.32,3.68,1.67,7.28,6.12,12.13,6.75,7.41,23.21,18.15,37.77,17.31,6.9-.41,13-3.79,13.93-8.51a60.45,60.45,0,0,0,1-12.78c1.76.05,3.56.08,5.43.07,17,13.39,42.72,19.06,73.94,23.28,3.7.49,10.41-3.87,7.69-6.34a75.16,75.16,0,0,0-10.26-7.72c16.23,2.39,37.22.59,48.45-.33,25.64-2.12,60.8-4.9,82.34-15.25,0,0,.07-.05.07-.06,9.37,0,17.92-.32,23.73-.3,19.47,0,69.93,2.58,80.77-12.65,6.79-9.48-24.78-12.16-32.19-13.16-2.42-.32-4.88-.57-7.42-.86,8.16-1.4,16.28-2.83,24.12-4.31,23.53-4.4,60.09-10,71.17-26.62C2175.22,742.39,2110.49,751.27,2105.34,751.93Z"/><path class="cls-33" d="M2069.32,599.55c-24.88,3.8-49.76,9.78-74,16.66,2.73-1.83,5.34-3.69,7.8-5.64,9.65-7.71,24.78-19.7,25.85-31.23.2-2.52-3-2.46-4.94-1.05-21.18,15.61-56.75,24.84-86.8,31.19,7.6-4.24,12.91-9,12.11-14.13-1.45-9.1-27.44-5.18-50.83.14a6.72,6.72,0,0,1-.64-.68c4.7-2.17,9.38-4.35,14.11-6.47,11.54-5.26,26.87-10.08,35.24-18.48.9-.86,1.91-2.33,1.14-3.44-5.69-8.26-31.06-.73-39.4.9-8.54,1.63-16.88,3.58-25.21,5.63,10.72-7.13,18.42-14.15,13.54-17.66-9.81-7-33.61,2.29-43.63,5.61a173.69,173.69,0,0,0-35.83,16.78h-3.73c8.23-11.56,14-24.25-.54-24.6-14.09-.36-26,8-36.61,17.11h0a49.39,49.39,0,0,0-9.52-20c-3.82-5-10.82-10.31-17.84-5.5-5.85,4.05-4.75,12.2-4.34,17.56.07,1,.2,2.08.3,3.1-20.47-1.89-43.3-.69-57.82,10.45-.4.28-.74.61-1.11.9-18.86-.84-37.75-3-56.38-4.84-14.35-1.44-43.29-10.69-57.31-4.09-8.2,3.85-5.48,11.93.2,16.66a114.55,114.55,0,0,0,23.4,15.51c-16-1.91-32-3.87-48-5.74-10.52-1.23-21.28-1.65-31.87-1.9-8.1-.21-15.16,3.27-22.49,3.21-1.71,0-3.06,1.49-3.67,2.57-5.91,10.79,16.14,16.48,35.77,19.73-.7.13-1.44.27-2.15.43-30,2.15-63.23,6-83.33,20.56-1.08.72-2.79,2.55-1.75,3.68a14.24,14.24,0,0,0,5.71,3.62c-7,6.22-9.34,13.28-4.44,21.34a171.51,171.51,0,0,0,33.12-6.4,15.62,15.62,0,0,0-1.21,1.83,1.77,1.77,0,0,0,.43,2.3c9.28,7.62,39.41-6.06,48-9.12,6.12-2.14,12.81-4.35,19.49-6.8-2,2.21-4.06,4.42-6.14,6.42-6.83,6.58-9,13.87,5.14,13.42,18.59-.55,38.69-8,56.47-18.46a2.29,2.29,0,0,0,2.09.41c13.34-2.84,26.73-5.93,39.6-10-21.62,13.27-46.53,30.09-39.67,33.11,11,4.88,30.19-1.65,41.45-4.18a309.42,309.42,0,0,0,37.14-11.19c-8.33,10.28-16.13,23.49-9.71,33.32a2,2,0,0,0,1.92.75c6.79-1.14,10.19-5.05,15.46-8.48,3.3-2.11,6.39-4.44,9.54-6.72-1.44,3.71-1.47,7.14,1,9.42a3.45,3.45,0,0,0,2.69.15c17.61-4.09,35-15.13,51.16-22,1.25-.5,2.38-1.05,3.6-1.58-.27,3.68,1.44,7.28,5.27,12.13,5.82,7.41,20,18.15,32.54,17.31,6-.41,11.16-3.79,12-8.51a70,70,0,0,0,.87-12.78c1.51.05,3.06.08,4.67.07,14.69,13.39,36.81,19.06,63.71,23.28,3.19.49,9-3.87,6.62-6.34a66.27,66.27,0,0,0-8.84-7.72c14,2.39,32.07.59,41.75-.33,22.09-2.12,52.37-4.9,70.93-15.25,0,0,.06-.05.06-.06,8.07,0,15.44-.32,20.45-.3,16.77,0,60.24,2.58,69.58-12.65,5.85-9.48-21.34-12.16-27.73-13.16-2.09-.33-4.2-.57-6.39-.87,7-1.39,14-2.82,20.78-4.3,20.27-4.4,51.77-10,61.32-26.62C2129.52,590,2073.75,598.89,2069.32,599.55Z"/><path class="cls-34" d="M1987.77,430.7c-19.74,3.8-39.48,9.77-58.75,16.65,2.16-1.82,4.24-3.69,6.19-5.63,7.66-7.72,19.66-19.71,20.51-31.23.17-2.53-2.39-2.47-3.91-1.05-16.81,15.61-45,24.84-68.89,31.18,6-4.23,10.24-9,9.61-14.12-1.15-9.11-21.78-5.19-40.34.14a5.58,5.58,0,0,1-.51-.69c3.73-2.16,7.44-4.34,11.2-6.47,9.16-5.26,21.32-10.07,28-18.47.72-.87,1.52-2.33.91-3.45-4.51-8.26-24.65-.73-31.27.91-6.77,1.62-13.39,3.58-20,5.63,8.51-7.13,14.62-14.16,10.75-17.66-7.78-7-26.68,2.28-34.63,5.6a128,128,0,0,0-28.44,16.79h-3c6.54-11.57,11.15-24.26-.43-24.61-11.17-.35-20.62,8-29,17.12v0a55.83,55.83,0,0,0-7.55-20c-3-5-8.59-10.32-14.17-5.5-4.64,4.05-3.76,12.2-3.44,17.56.06,1,.16,2.07.24,3.09-16.25-1.88-34.36-.68-45.89,10.45-.32.29-.59.61-.88.91-15-.85-30-3-44.74-4.85-11.4-1.44-34.36-10.68-45.49-4.08-6.51,3.85-4.35,11.92.16,16.66a92.6,92.6,0,0,0,18.57,15.51c-12.73-1.92-25.38-3.87-38.07-5.74a218.76,218.76,0,0,0-25.3-1.91c-6.42-.2-12,3.27-17.84,3.22-1.36,0-2.43,1.49-2.92,2.57-4.69,10.78,12.82,16.47,28.4,19.72l-1.71.43c-23.85,2.16-50.19,6.06-66.14,20.57-.86.72-2.21,2.55-1.39,3.67a11.38,11.38,0,0,0,4.54,3.62c-5.53,6.22-7.42,13.29-3.53,21.34a111.48,111.48,0,0,0,26.28-6.39,20,20,0,0,0-1,1.83,2.07,2.07,0,0,0,.35,2.29c7.37,7.62,31.27-6.05,38.1-9.11,4.85-2.14,10.16-4.36,15.47-6.81-1.62,2.22-3.22,4.42-4.88,6.43-5.42,6.58-7.09,13.86,4.08,13.42,14.76-.56,30.71-8,44.83-18.46a1.52,1.52,0,0,0,1.65.4,286.68,286.68,0,0,0,31.43-10c-17.16,13.26-36.93,30.09-31.48,33.11,8.69,4.87,24-1.66,32.89-4.18a209.57,209.57,0,0,0,29.48-11.19c-6.61,10.28-12.8,23.49-7.71,33.32a1.47,1.47,0,0,0,1.53.74c5.38-1.14,8.08-5,12.27-8.47,2.61-2.12,5.07-4.45,7.57-6.72-1.14,3.71-1.17,7.14.8,9.41.57.56,1.58.34,2.14.16,14-4.1,27.82-15.13,40.61-22,1-.49,1.89-1,2.85-1.58-.21,3.68,1.15,7.29,4.19,12.14,4.61,7.41,15.87,18.14,25.82,17.3a10.28,10.28,0,0,0,9.53-8.5,87.64,87.64,0,0,0,.69-12.78c1.2.05,2.43.08,3.71.06,11.66,13.39,29.22,19.07,50.56,23.28,2.53.5,7.12-3.86,5.26-6.33a58.63,58.63,0,0,0-7-7.72c11.1,2.38,25.45.58,33.13-.34,17.53-2.11,41.57-4.9,56.3-15.24,0,0,0-.05,0-.07,6.41,0,12.25-.32,16.23-.3,13.31,0,47.81,2.59,55.22-12.65,4.64-9.47-16.94-12.15-22-13.15-1.65-.33-3.33-.57-5.07-.87,5.58-1.39,11.13-2.83,16.49-4.31,16.09-4.39,41.09-10,48.66-26.61C2035.55,421.16,1991.29,430,1987.77,430.7Z"/><path class="cls-35" d="M1923.31,278.32c-14.22,3.8-28.44,9.77-42.3,16.65,1.55-1.82,3-3.69,4.45-5.64,5.51-7.71,14.16-19.7,14.77-31.23.12-2.52-1.73-2.46-2.82-1.05-12.1,15.61-32.43,24.85-49.6,31.19,4.34-4.23,7.38-9,6.92-14.12-.83-9.11-15.68-5.19-29,.14a7.49,7.49,0,0,1-.36-.69c2.69-2.17,5.36-4.34,8.06-6.47,6.6-5.26,15.35-10.07,20.14-18.47a4.38,4.38,0,0,0,.65-3.45c-3.25-8.26-17.75-.73-22.52.91s-9.64,3.58-14.4,5.63c6.12-7.14,10.53-14.16,7.74-17.66-5.61-7-19.21,2.28-24.93,5.6a91.56,91.56,0,0,0-20.48,16.79h-2.13c4.7-11.57,8-24.26-.31-24.61-8.05-.35-14.85,8-20.92,17.11h0a70.46,70.46,0,0,0-5.44-20c-2.18-5-6.18-10.31-10.2-5.49-3.34,4.05-2.71,12.2-2.47,17.56,0,1,.11,2.07.17,3.09-11.7-1.88-24.74-.68-33,10.45-.23.29-.42.61-.64.91-10.77-.85-21.57-3-32.21-4.85-8.2-1.44-24.74-10.68-32.75-4.08-4.69,3.85-3.13,11.92.12,16.66a77.94,77.94,0,0,0,13.36,15.51c-9.16-1.92-18.27-3.87-27.41-5.74A114.35,114.35,0,0,0,1607.5,271c-4.63-.21-8.66,3.27-12.85,3.22-1,0-1.75,1.49-2.1,2.56-3.37,10.79,9.23,16.48,20.44,19.73l-1.23.43c-17.17,2.16-36.13,6.06-47.61,20.57-.62.72-1.6,2.54-1,3.67a9.49,9.49,0,0,0,3.27,3.62,23.43,23.43,0,0,0-2.54,21.34,62.86,62.86,0,0,0,18.93-6.39,19.12,19.12,0,0,0-.69,1.83,2.65,2.65,0,0,0,.25,2.29c5.3,7.62,22.51-6.05,27.42-9.11,3.5-2.14,7.32-4.36,11.15-6.81-1.17,2.22-2.33,4.42-3.52,6.43-3.9,6.58-5.11,13.86,2.94,13.42,10.62-.56,22.11-8,32.27-18.46a.92.92,0,0,0,1.19.4,167.28,167.28,0,0,0,22.63-10c-12.35,13.26-26.58,30.09-22.66,33.11,6.26,4.87,17.25-1.66,23.68-4.19a128.6,128.6,0,0,0,21.23-11.19c-4.76,10.29-9.22,23.5-5.55,33.32.19.51.65.88,1.09.75,3.88-1.14,5.82-5,8.84-8.47,1.88-2.12,3.65-4.45,5.45-6.72-.82,3.71-.84,7.14.58,9.41.4.56,1.13.34,1.54.16,10.06-4.1,20-15.13,29.23-22,.71-.49,1.36-1,2.06-1.58-.16,3.68.82,7.29,3,12.14,3.33,7.41,11.43,18.14,18.6,17.3,3.4-.41,6.37-3.79,6.86-8.51a125.23,125.23,0,0,0,.5-12.78c.86.05,1.74.09,2.67.07,8.39,13.39,21,19.07,36.4,23.28,1.82.5,5.13-3.86,3.78-6.33a54.67,54.67,0,0,0-5-7.72c8,2.38,18.33.58,23.86-.34,12.62-2.11,29.93-4.9,40.53-15.24,0,0,0-.05,0-.07,4.61,0,8.82-.32,11.68-.3,9.59,0,34.42,2.59,39.76-12.65,3.34-9.47-12.2-12.16-15.84-13.15-1.2-.33-2.41-.58-3.66-.87,4-1.39,8-2.83,11.87-4.31,11.59-4.39,29.59-10,35-26.61C1957.71,268.77,1925.84,277.65,1923.31,278.32Z"/><path class="cls-36" d="M1841.1,169.05c9.44-3.83,19-8.71,17.52-13.11-1.7-5.19-19.44-2.63-32.45,1.25-11.92-7.35-28.23-13.2-39-17.23-1.72-6.1-4.94-11.85-11.39-12.78a4.73,4.73,0,0,0-3.42,1.11,9.64,9.64,0,0,0-3,5.28c-.36-.14-.74-.24-1.14-.37a66.11,66.11,0,0,0-6.74-7.41c-5.11-4.78-13.08-10.14-22-11.48-8.12-1.21-6.35,6-2.83,13.36-4.43-.72-8.81-1.48-13.06-2.25a185.13,185.13,0,0,1-29.72-8.16c-4.68-1.65-8.48-4.74-13.87-5.23-2.28-.2-4.68,1.57-4.38,3,1,5.25,5.24,10.2,10.94,14.46-13.22-1.15-26.48-2.09-39.49-3.35-29.49-2.81-53.79-9.82-81.08-17-1.74-.46-3.87,1.51-3.61,2.5,3.84,14.63,27.13,30.3,43,40.31,9,5.66,20.76,10.2,31.27,14.52a28.71,28.71,0,0,0,3.59,1.28c-9.21.35-19.79.59-27.29-1.68-1.44-.47-3.18,1.08-3.59,1.78-3.39,6.08,15.41,14.81,21.36,16.89,7,2.46,15.24,3.39,23.84,3.5a66.89,66.89,0,0,0,7.22.71,92.77,92.77,0,0,0-16.83,6,222,222,0,0,0,22.83.82c3.09-.06,6.12-.19,9.21-.36-7.14,2.52-11.77,5.52-10.53,9.15,2.71,7.9,38,3.51,44.53,2.74a284.69,284.69,0,0,0,40.45-7.44c-.67.64-1.45,1.19-2,1.86s-1,1.89.48,2.32c9.26,2.66,18.24-.15,27.31-2.53a152.07,152.07,0,0,0,21.43-7.14c-2,6.84,6.43,8.28,15.47,7.1,12.22-1.59,25.69-7.37,25.11-12.83,10.73-.6,22.76-2,29.16-7C1883.45,170.11,1859.83,167.75,1841.1,169.05Z"/><path class="cls-37" d="M1943.62,23c0-.58-.17-1.16-1.74-1.36-8-1-16.11.19-24,1.2a6.45,6.45,0,0,0,1.57-1.86c7-2.13,13.71-4.34,19.89-6.68,1.49-.57,5.38-3.71.12-3.33a264.69,264.69,0,0,0-28.79,3.95c-1.24-.16-2.61-.25-4-.3,13.67-4.47,24.9-9.85,32.19-17.28,1.2-1.26-1.53-2.24-4.35-1.41A373.5,373.5,0,0,1,1879.25,8c-7.46,1-29.53,3.82-47.76,4.19,0-1.11-.67-2.12-2.37-2.93-6-2.87-15-2.72-24-1.69,6.25-2.26,11.47-4.75,12-7.61.12-.72-.66-1.7-3-1.51-3.53.29-7,.79-10.4,1.34,5.14-9.87,5.54-19.17-11.52-15-21.66,5.29-36.37,18.32-43.29,30.62A23.46,23.46,0,0,0,1730.53,5c-3-.16-5.68,1-6.63,2-4.19,4.54-5,9.19-3.93,13.82a85.56,85.56,0,0,0-18.15-8.63c-6.22-2.12-19.6-5.78-27.63-2.94-9.28,3.3-2.24,8.07,1.57,11.63a77.42,77.42,0,0,0,9.74,7.69c-4.89-1.45-9.57-1.89-13.51-.51-7.08,2.51-5.09,6.64-2.77,9.82s3.36,6.29,5,9.44c-16.61-4.83-37.49-7.4-54.1-1.54-15.12,5.36,4.51,10.27,24,13.38-11.32,1.25-21.09,3.67-22.46,7.77-3.06,9.19,28.67,8.78,51.66,7.57l1.12.85c-6.42,2.09-11.43,4.6-13.92,8.83-3,5.31,24.53,4,30.08,3.74,19.26-.89,36.08-12.55,45.77-17.92,2-1.08,3.6-2.19,5.43-3.26a8.26,8.26,0,0,0-.25,5.28c.13.29.49.58,1.24.62,26.18,2.06,59.78-10.81,76-23.46,1.17,5.41,4.86,10.15,15.13,8.67,8.66-1.24,11.18-4.94,11-8.88,1,0,1.9-.11,2.9-.15,15,4.43,35.17,6.71,48.17.36,11.44-5.6-2.68-7.33-17.14-8.76,5.59-.82,11.18-1.68,16.36-2.58C1908.41,35.58,1942.83,30.36,1943.62,23Z"/><path class="cls-38" d="M2514,1383.5c-7.45,5.16-18.71,11.15-32.69,11.39-11.12.19-18.66-3.36-20-.84-1.79,3.37,8.07,16.59,19.76,17.26,14.79.85,26.43-18.72,33.67-14.54a4.85,4.85,0,0,1,2.13,2.53c2,6.47-14.33,16.07-13.64,17.2.93,1.54,27.19-22.7,57-22.62,32.39.08,57.57,28.77,59.39,26.39,1.7-2.23-23.34-23.76-21.32-26.32.52-.65,2.6.15,6.83,1.62,6.28,2.18,8.93,5.38,23.83,8.75,22.18,5,48.23,5.1,50.15.94,1-2.2-3.84-7.45-47.37-21.76Q2609.22,795.72,2583.08,208q-8.29-186.63-17-373.3Q2552.68,8,2539.25,181.17,2526.61,782.33,2514,1383.5Z"/><path class="cls-39" d="M2889.09,740.08c-1.78.2-3.07.39-4,.51-28.87,3.8-57.74,9.77-85.92,16.65,3.16-1.82,6.2-3.69,9.06-5.64,11.19-7.71,28.75-19.7,30-31.23.24-2.52-3.5-2.46-5.73-1-24.58,15.61-65.86,24.85-100.75,31.19,8.82-4.23,15-9,14.06-14.12-1.68-9.11-31.85-5.19-59,.14a8.4,8.4,0,0,1-.75-.69c5.47-2.17,10.89-4.34,16.39-6.47,13.39-5.26,31.18-10.07,40.89-18.47,1.05-.87,2.23-2.33,1.33-3.45-6.6-8.26-36-.73-45.73.91-9.91,1.62-19.59,3.58-29.27,5.63,12.45-7.14,21.39-14.16,15.72-17.66-11.38-7-39,2.28-50.64,5.6a217.92,217.92,0,0,0-41.59,16.79h-4.33c9.55-11.57,16.31-24.26-.63-24.61-16.35-.35-30.16,8-42.49,17.11h0c-1.72-6.79-5.08-13.29-11-20-4.45-5-12.57-10.31-20.72-5.49-6.79,4-5.51,12.2-5,17.56.07,1,.23,2.07.34,3.09-23.76-1.88-50.25-.68-67.11,10.45-.46.29-.86.61-1.29.91-21.88-.85-43.81-3-65.43-4.85-16.67-1.44-50.26-10.68-66.53-4.08-9.52,3.85-6.36,11.92.24,16.66A136.51,136.51,0,0,0,2336.32,741c-18.61-1.92-37.11-3.87-55.68-5.74-12.21-1.23-24.7-1.66-37-1.91-9.4-.21-17.6,3.27-26.1,3.22a5.47,5.47,0,0,0-4.26,2.56c-6.86,10.79,18.73,16.48,41.52,19.73l-2.5.43c-34.88,2.16-73.39,6.06-96.73,20.57-1.25.72-3.23,2.54-2,3.67a17.1,17.1,0,0,0,6.64,3.62c-8.08,6.22-10.85,13.29-5.16,21.34a228.65,228.65,0,0,0,38.44-6.39,15.6,15.6,0,0,0-1.4,1.83,1.6,1.6,0,0,0,.5,2.29c10.78,7.62,45.74-6,55.72-9.11,7.1-2.14,14.87-4.36,22.63-6.81-2.38,2.22-4.72,4.42-7.13,6.43-7.93,6.58-10.38,13.86,6,13.42,21.57-.56,44.91-8,65.55-18.46a3,3,0,0,0,2.41.4c15.5-2.84,31-5.92,46-10-25.09,13.26-54,30.09-46,33.11,12.72,4.87,35-1.66,48.11-4.19a403.53,403.53,0,0,0,43.11-11.19c-9.67,10.29-18.73,23.5-11.27,33.32a2.53,2.53,0,0,0,2.23.75c7.88-1.14,11.82-5,17.94-8.47,3.83-2.12,7.42-4.45,11.08-6.72-1.67,3.71-1.71,7.14,1.17,9.41a4.57,4.57,0,0,0,3.13.16c20.44-4.1,40.69-15.14,59.39-22,1.44-.49,2.76-1.05,4.17-1.58-.31,3.68,1.67,7.29,6.12,12.14,6.76,7.41,23.22,18.14,37.77,17.3,6.91-.41,13-3.79,13.94-8.51a60.4,60.4,0,0,0,1-12.78c1.76.05,3.55.09,5.42.07,17.05,13.39,42.73,19.07,74,23.28,3.7.5,10.41-3.86,7.69-6.33a74.46,74.46,0,0,0-10.27-7.72c16.24,2.38,37.23.58,48.46-.34,25.64-2.11,60.8-4.9,82.34-15.24,0,0,.07,0,.07-.07,9.37,0,17.91-.32,23.73-.3,19.47,0,69.92,2.59,80.76-12.65,6.79-9.47-24.77-12.16-32.18-13.15-2.43-.33-4.88-.58-7.42-.87,8.16-1.39,16.27-2.83,24.11-4.31,22.92-4.32,72.14-17.79,71.18-26.61C2942.67,742,2914,737.34,2889.09,740.08Z"/><path class="cls-40" d="M2196.13,570.24c9.54,16.61,41,22.22,61.32,26.61,6.75,1.48,13.75,2.92,20.77,4.31-2.18.3-4.3.54-6.39.87-6.38,1-33.58,3.68-27.73,13.16,9.34,15.23,52.81,12.67,69.59,12.64,5,0,12.37.26,20.44.3,0,0,.06,0,.06.07,18.56,10.34,48.85,13.13,70.94,15.24,9.67.93,27.76,2.73,41.75.34a66.36,66.36,0,0,0-8.85,7.72c-2.34,2.47,3.44,6.83,6.63,6.33,26.89-4.21,49-9.89,63.7-23.28,1.61,0,3.16,0,4.67-.06a70.06,70.06,0,0,0,.88,12.78c.84,4.72,6.05,8.1,12,8.51,12.54.84,26.72-9.9,32.54-17.31,3.83-4.85,5.55-8.45,5.28-12.14,1.21.54,2.35,1.09,3.59,1.59,16.11,6.89,33.55,17.92,51.17,22a3.46,3.46,0,0,0,2.69-.15c2.48-2.28,2.45-5.71,1-9.42,3.15,2.27,6.25,4.6,9.55,6.72,5.27,3.43,8.67,7.33,15.46,8.48a2,2,0,0,0,1.91-.75c6.43-9.83-1.38-23-9.71-33.32a310,310,0,0,0,37.14,11.19c11.27,2.53,30.5,9.06,41.45,4.18,6.87-3-18-19.84-39.66-33.11,12.87,4,26.25,7.13,39.6,10a2.27,2.27,0,0,0,2.08-.4c17.78,10.46,37.89,17.9,56.48,18.46,14.08.44,12-6.84,5.14-13.42-2.08-2-4.1-4.21-6.15-6.43,6.69,2.46,13.38,4.67,19.5,6.81,8.6,3.06,38.72,16.74,48,9.11a1.74,1.74,0,0,0,.44-2.29,18.65,18.65,0,0,0-1.21-1.83,171.39,171.39,0,0,0,33.11,6.39c4.91-8,2.52-15.12-4.44-21.34a14.14,14.14,0,0,0,5.72-3.62c1-1.12-.68-2.95-1.75-3.67-20.1-14.51-53.29-18.41-83.33-20.57-.71-.15-1.45-.29-2.16-.42,19.63-3.26,41.68-9,35.77-19.73-.6-1.08-2-2.57-3.66-2.57-7.33,0-14.39-3.42-22.49-3.21-10.59.25-21.35.67-31.87,1.9-16,1.87-31.94,3.83-48,5.74a114.62,114.62,0,0,0,23.39-15.51c5.68-4.74,8.41-12.81.21-16.66-14-6.6-43,2.65-57.32,4.08-18.63,1.86-37.52,4-56.38,4.85-.37-.29-.7-.62-1.11-.91-14.52-11.13-37.34-12.33-57.81-10.45.1-1,.23-2.1.3-3.09.4-5.36,1.51-13.51-4.34-17.56-7-4.82-14,.46-17.85,5.5a49.52,49.52,0,0,0-9.52,20h0c-10.61-9.07-22.52-17.47-36.6-17.12-14.59.35-8.77,13-.54,24.61h-3.73A174.48,174.48,0,0,0,2462,523.61c-10-3.32-33.83-12.61-43.64-5.6-4.87,3.5,2.83,10.53,13.55,17.66-8.34-2-16.68-4-25.21-5.63-8.34-1.64-33.72-9.16-39.4-.91-.78,1.12.23,2.58,1.14,3.45,8.37,8.4,23.7,13.21,35.23,18.47,4.74,2.13,9.41,4.31,14.12,6.47a8.3,8.3,0,0,1-.64.69c-23.39-5.33-49.38-9.25-50.83-.14-.8,5.11,4.51,9.89,12.11,14.13-30.06-6.35-65.63-15.58-86.8-31.19-1.92-1.42-5.15-1.48-4.94,1,1.07,11.52,16.2,23.51,25.84,31.23,2.46,1.94,5.08,3.81,7.8,5.63-24.27-6.88-49.14-12.85-74-16.65C2241.88,561.61,2186.12,552.73,2196.13,570.24Z"/><path class="cls-41" d="M2288,417.86c7.58,16.61,32.58,22.22,48.67,26.61,5.36,1.48,10.91,2.92,16.48,4.31-1.73.3-3.41.54-5.07.87-5.07,1-26.65,3.68-22,13.15,7.41,15.24,41.91,12.68,55.22,12.65,4,0,9.82.26,16.23.3,0,0,0,0,0,.07,14.73,10.34,38.77,13.13,56.3,15.24,7.68.92,22,2.72,33.14.34a57.94,57.94,0,0,0-7,7.72c-1.87,2.47,2.72,6.83,5.25,6.33,21.35-4.21,38.91-9.89,50.56-23.28,1.28,0,2.51,0,3.71-.06a89.06,89.06,0,0,0,.69,12.78,10.3,10.3,0,0,0,9.53,8.5c9.95.84,21.21-9.89,25.83-17.3,3-4.85,4.4-8.46,4.18-12.14,1,.53,1.87,1.09,2.86,1.58,12.78,6.9,26.63,17.93,40.61,22,.56.18,1.57.4,2.13-.16,2-2.27,2-5.7.8-9.41,2.51,2.27,5,4.6,7.58,6.72,4.19,3.43,6.88,7.33,12.27,8.47a1.47,1.47,0,0,0,1.52-.74c5.1-9.83-1.1-23-7.71-33.32a209.57,209.57,0,0,0,29.48,11.19c8.94,2.52,24.2,9.05,32.9,4.18,5.44-3-14.33-19.85-31.48-33.11a285.32,285.32,0,0,0,31.43,10,1.53,1.53,0,0,0,1.65-.4c14.11,10.46,30.07,17.9,44.82,18.46,11.18.44,9.5-6.84,4.08-13.42-1.65-2-3.25-4.21-4.88-6.43,5.31,2.45,10.62,4.67,15.48,6.81,6.82,3.06,30.73,16.73,38.09,9.11a2.07,2.07,0,0,0,.35-2.29,17.78,17.78,0,0,0-1-1.83,111.6,111.6,0,0,0,26.28,6.39c3.9-8.05,2-15.12-3.52-21.34a11.38,11.38,0,0,0,4.54-3.62c.82-1.12-.54-3-1.39-3.67-16-14.51-42.29-18.41-66.14-20.57l-1.71-.43c15.58-3.25,33.08-8.94,28.39-19.72-.48-1.08-1.55-2.57-2.91-2.57-5.82.05-11.42-3.42-17.85-3.22a218.75,218.75,0,0,0-25.29,1.91c-12.7,1.87-25.35,3.82-38.07,5.74a92.55,92.55,0,0,0,18.56-15.51c4.51-4.74,6.67-12.81.16-16.66-11.12-6.6-34.09,2.64-45.48,4.08-14.79,1.86-29.78,4-44.75,4.85-.29-.3-.56-.62-.88-.91-11.52-11.13-29.64-12.33-45.88-10.45.07-1,.18-2.1.23-3.09.33-5.36,1.2-13.51-3.44-17.56-5.57-4.82-11.13.46-14.16,5.5a56,56,0,0,0-7.56,20v0c-8.42-9.07-17.87-17.47-29.05-17.12-11.58.35-7,13-.43,24.61h-3A127.72,127.72,0,0,0,2499,371.23c-7.95-3.32-26.84-12.61-34.63-5.6-3.87,3.5,2.24,10.53,10.75,17.66-6.61-2.05-13.23-4-20-5.63-6.62-1.64-26.76-9.17-31.28-.91-.61,1.12.19,2.58.91,3.45,6.64,8.4,18.81,13.21,28,18.47,3.76,2.13,7.47,4.31,11.21,6.47a6.82,6.82,0,0,1-.51.69c-18.57-5.33-39.19-9.25-40.34-.14-.64,5.11,3.58,9.89,9.61,14.12-23.85-6.34-52.08-15.57-68.89-31.18-1.52-1.42-4.08-1.48-3.92,1.05.85,11.52,12.86,23.51,20.51,31.23,1.95,1.94,4,3.81,6.19,5.63-19.26-6.88-39-12.85-58.75-16.65C2324.34,409.23,2280.08,400.35,2288,417.86Z"/><path class="cls-42" d="M2363.65,265.48c5.45,16.6,23.46,22.22,35,26.61,3.86,1.48,7.86,2.92,11.87,4.31-1.25.29-2.46.54-3.65.87-3.65,1-19.19,3.68-15.85,13.15,5.34,15.24,30.18,12.68,39.77,12.65,2.86,0,7.07.26,11.68.3,0,0,0,0,0,.07,10.61,10.34,27.92,13.13,40.54,15.24,5.53.92,15.86,2.72,23.85.34a56.49,56.49,0,0,0-5,7.72c-1.34,2.47,2,6.83,3.79,6.33,15.36-4.21,28-9.89,36.4-23.28.92,0,1.8,0,2.67-.07a119.74,119.74,0,0,0,.5,12.78c.48,4.72,3.46,8.1,6.86,8.51,7.16.84,15.27-9.89,18.59-17.3,2.19-4.85,3.17-8.46,3-12.14.69.53,1.34,1.09,2.05,1.58,9.2,6.9,19.17,17.93,29.24,22,.4.18,1.13.4,1.54-.16,1.42-2.27,1.4-5.7.57-9.41,1.81,2.27,3.57,4.6,5.46,6.72,3,3.43,4.95,7.33,8.83,8.47.44.13.91-.24,1.1-.75,3.67-9.82-.79-23-5.55-33.32a127.76,127.76,0,0,0,21.22,11.19c6.44,2.53,17.43,9.06,23.69,4.19,3.92-3-10.32-19.85-22.67-33.11a168.38,168.38,0,0,0,22.63,10,.91.91,0,0,0,1.19-.4c10.16,10.46,21.65,17.9,32.27,18.46,8,.44,6.84-6.84,2.94-13.42-1.19-2-2.34-4.21-3.51-6.43,3.82,2.45,7.64,4.67,11.14,6.81,4.91,3.06,22.13,16.73,27.43,9.11a2.71,2.71,0,0,0,.25-2.29,19.12,19.12,0,0,0-.69-1.83,62.8,62.8,0,0,0,18.92,6.39,23.43,23.43,0,0,0-2.54-21.34,9.33,9.33,0,0,0,3.27-3.62c.59-1.13-.39-3-1-3.67-11.49-14.51-30.45-18.41-47.62-20.57-.4-.15-.83-.29-1.23-.43,11.22-3.25,23.82-8.94,20.44-19.73-.35-1.07-1.12-2.56-2.09-2.56-4.19.05-8.23-3.43-12.85-3.22a114.47,114.47,0,0,0-18.22,1.91c-9.14,1.87-18.24,3.82-27.41,5.74a77.65,77.65,0,0,0,13.37-15.51c3.25-4.74,4.8-12.81.12-16.66-8-6.6-24.55,2.64-32.75,4.08-10.65,1.86-21.44,4-32.22,4.85-.21-.3-.4-.62-.63-.91-8.3-11.13-21.34-12.33-33-10.45,0-1,.13-2.1.17-3.09.23-5.36.86-13.51-2.48-17.56-4-4.82-8,.46-10.2,5.49a70.79,70.79,0,0,0-5.44,20h0c-6.06-9.06-12.87-17.46-20.91-17.11-8.34.35-5,13-.31,24.61h-2.13a91.78,91.78,0,0,0-20.48-16.79c-5.73-3.32-19.33-12.61-24.93-5.6-2.79,3.5,1.61,10.53,7.74,17.66-4.77-2-9.53-4-14.41-5.63s-19.27-9.17-22.51-.91a4.3,4.3,0,0,0,.65,3.45c4.78,8.4,13.54,13.21,20.13,18.47,2.71,2.13,5.38,4.3,8.07,6.47a7.55,7.55,0,0,1-.37.69c-13.36-5.33-28.22-9.25-29-.14-.46,5.11,2.57,9.89,6.92,14.12-17.18-6.34-37.5-15.58-49.6-31.19-1.1-1.41-2.94-1.47-2.83,1,.62,11.53,9.26,23.52,14.77,31.23,1.41,2,2.9,3.82,4.46,5.64-13.87-6.88-28.08-12.85-42.3-16.65C2389.8,256.84,2357.93,248,2363.65,265.48Z"/><path class="cls-43" d="M2447.27,160.89c6.41,5,18.43,6.4,29.16,7-.58,5.46,12.89,11.24,25.11,12.83,9,1.18,17.47-.26,15.47-7.1a151.76,151.76,0,0,0,21.44,7.14c9.06,2.38,18,5.19,27.31,2.53,1.47-.43,1.19-1.54.48-2.32s-1.39-1.22-2-1.86a284.43,284.43,0,0,0,40.45,7.44c6.5.77,41.81,5.16,44.52-2.74,1.25-3.63-3.39-6.63-10.53-9.15,3.09.17,6.13.3,9.22.36a222,222,0,0,0,22.83-.82,92.88,92.88,0,0,0-16.84-6,66.39,66.39,0,0,0,7.22-.71c8.61-.11,16.8-1,23.84-3.5,5.95-2.08,24.76-10.81,21.37-16.89-.41-.7-2.16-2.25-3.6-1.78-7.49,2.27-18.07,2-27.29,1.68a28.86,28.86,0,0,0,3.6-1.28c10.5-4.32,22.28-8.86,31.26-14.52,15.85-10,39.13-25.68,43-40.31.25-1-1.87-3-3.62-2.5-27.29,7.18-51.58,14.19-81.07,17-13,1.26-26.28,2.2-39.49,3.35,5.7-4.26,9.92-9.21,10.93-14.46.31-1.45-2.1-3.22-4.38-3-5.39.49-9.18,3.58-13.87,5.23a185.3,185.3,0,0,1-29.71,8.16c-4.26.77-8.63,1.53-13.06,2.25,3.51-7.31,5.29-14.57-2.84-13.36-8.93,1.34-16.91,6.7-22,11.48a66,66,0,0,0-6.73,7.41c-.41.13-.78.23-1.14.37a9.72,9.72,0,0,0-3-5.28,4.71,4.71,0,0,0-3.41-1.11c-6.46.93-9.67,6.68-11.4,12.78-10.73,4-27,9.88-39,17.23-13-3.88-30.75-6.44-32.45-1.25-1.44,4.4,8.07,9.28,17.51,13.11C2455.8,146.94,2432.19,149.3,2447.27,160.89Z"/><path class="cls-44" d="M2467,45.75a17,17,0,0,0,7.91,1.77,111.41,111.41,0,0,0,22.52-1.91c-15.19,7-36.81,16.55-10,20.14a41.21,41.21,0,0,0,21.66-3.59c6.13-3.17,2.65-6,1.3-9,17.88,6.39,31.38,13.82,50.46,20.07,12.11,4,32.48,10.94,54,12.17,27.39,1.57,0-9.4-19.53-16.24,29.38,5.24,68.64,12.71,98.82,11.14,1.1-.05,2-.35,2-.62.05-9.08-37.61-15.24-69.83-16.81a90.12,90.12,0,0,0,23-24.25c4.24-6.37,13.2-15.07,4.19-21.47-13.45-9.52-43.64,3.15-60.47,8.86,2.89-4.09,8.91-7.92,12.35-12.09,1.89-2.38,3.64-4.44-3.14-6.32a16.68,16.68,0,0,0-6.63-.59c-6,1.12-10.65,3.78-15.78,5.44-1.05-3.39-.55-6.89-7.17-9.86a14.59,14.59,0,0,0-4.83-1c5.37-7.77,1.53-17.13-2.89-24.43-2.29-3.8-1.65-10.39-16.59-12.73a10.3,10.3,0,0,0-3-.06c-13.54,3.73-16.14,9.07-16.64,14.62-9,4.43-17.84,8.87-22.16,13.66-3.44,3.75-4.24,6.69-1.1,10.48,3.68,4.33,4.13,2.24-5.83,5.71s-20.42,9.14-8.26,13.28c7.71,2.61,16.68,3.39,26.84,3.71C2490.63,30.72,2454.07,37.48,2467,45.75Z"/><path class="cls-45" d="M231.07,1456.68c-10.7,7.42-26.88,16-46.95,16.36-16,.27-26.81-4.82-28.72-1.2-2.57,4.84,11.59,23.83,28.39,24.8,21.24,1.22,38-26.9,48.36-20.89a6.89,6.89,0,0,1,3.06,3.63c2.93,9.29-20.59,23.08-19.6,24.7,1.34,2.21,39-32.6,81.92-32.49,46.52.11,82.7,41.32,85.3,37.91,2.45-3.2-33.52-34.13-30.61-37.81.73-.93,3.73.23,9.8,2.33,9,3.13,12.84,7.73,34.23,12.56,31.86,7.2,69.28,7.34,72,1.36,1.46-3.16-5.52-10.7-68-31.26Q367.9,612.42,330.34-231.71,318.43-499.77,306-767.91,286.68-519.1,267.38-270.3,249.23,593.19,231.07,1456.68Z"/><path class="cls-46" d="M769.88,532.51c-2.56.28-4.42.56-5.68.72-41.48,5.46-83,14-123.42,23.92,4.54-2.62,8.91-5.3,13-8.09,16.07-11.08,41.3-28.31,43.08-44.86.35-3.63-5-3.54-8.23-1.51-35.31,22.42-94.61,35.68-144.71,44.8,12.67-6.09,21.52-13,20.18-20.29-2.41-13.08-45.74-7.45-84.74.2a12.7,12.7,0,0,1-1.07-1c7.85-3.12,15.64-6.24,23.54-9.3,19.23-7.55,44.79-14.47,58.74-26.53,1.51-1.25,3.19-3.35,1.9-4.95-9.47-11.87-51.78-1.05-65.69,1.3-14.22,2.33-28.13,5.14-42,8.08,17.88-10.24,30.72-20.33,22.58-25.36-16.35-10.07-56,3.28-72.74,8a313.08,313.08,0,0,0-59.74,24.11h-6.22c13.72-16.62,23.42-34.84-.9-35.35-23.48-.5-43.33,11.57-61,24.59v0c-2.47-9.76-7.3-19.09-15.87-28.74-6.38-7.23-18-14.81-29.75-7.89-9.76,5.81-7.92,17.52-7.23,25.22.11,1.42.33,3,.49,4.44-34.13-2.7-72.18-1-96.39,15-.67.41-1.23.88-1.85,1.3-31.44-1.21-62.94-4.29-94-7-23.94-2.06-72.18-15.35-95.56-5.86-13.67,5.52-9.13,17.12.34,23.92a196.33,196.33,0,0,0,39,22.29c-26.73-2.76-53.3-5.57-80-8.25-17.54-1.77-35.48-2.38-53.14-2.74-13.5-.3-25.27,4.7-37.49,4.62-2.85,0-5.1,2.14-6.12,3.69-9.85,15.49,26.92,23.66,59.65,28.33-1.18.19-2.42.4-3.6.62-50.09,3.1-105.42,8.7-138.93,29.54-1.79,1-4.65,3.66-2.92,5.28,2.25,2.27,5.67,3.88,9.53,5.2-11.6,8.93-15.58,19.08-7.4,30.65a328.49,328.49,0,0,0,55.21-9.18,23,23,0,0,0-2,2.62,2.31,2.31,0,0,0,.73,3.3c15.47,10.95,65.69-8.7,80-13.09,10.2-3.08,21.36-6.26,32.51-9.78-3.42,3.19-6.78,6.35-10.25,9.23-11.38,9.45-14.91,19.91,8.57,19.28,31-.8,64.51-11.49,94.16-26.52a4.23,4.23,0,0,0,3.47.58c22.25-4.08,44.57-8.51,66-14.32-36,19-77.57,43.22-66.13,47.56,18.27,7,50.33-2.38,69.11-6a580.23,580.23,0,0,0,61.92-16.08C95,633.07,81.94,652,92.65,666.16a3.65,3.65,0,0,0,3.2,1.08c11.31-1.64,17-7.25,25.77-12.18,5.5-3,10.66-6.38,15.92-9.65-2.41,5.33-2.46,10.26,1.68,13.53,1.18.79,3.31.48,4.49.21,29.37-5.87,58.45-21.73,85.3-31.63,2.08-.71,4-1.51,6-2.27-.45,5.29,2.4,10.47,8.79,17.43,9.7,10.65,33.35,26.07,54.26,24.86,9.91-.59,18.6-5.44,20-12.22A86.61,86.61,0,0,0,319.52,637c2.53.07,5.1.12,7.79.1,24.49,19.23,61.38,27.38,106.22,33.44,5.31.71,15-5.55,11-9.1a106.43,106.43,0,0,0-14.75-11.09c23.32,3.43,53.47.84,69.61-.48,36.83-3,87.32-7,118.26-21.9,0,0,.1-.07.1-.09,13.46-.06,25.74-.46,34.09-.43,28,0,100.44,3.71,116-18.17,9.75-13.61-35.59-17.47-46.23-18.9-3.48-.47-7-.82-10.66-1.25,11.72-2,23.38-4.06,34.64-6.18,32.92-6.21,103.62-25.56,102.23-38.23C846.84,535.23,805.62,528.57,769.88,532.51Z"/><path class="cls-47" d="M-225.46,288.55c13.71,23.86,59,31.92,88.08,38.23,9.7,2.12,19.74,4.19,29.84,6.19-3.15.42-6.18.77-9.18,1.24-9.18,1.44-48.24,5.29-39.83,18.9,13.41,21.88,75.85,18.21,99.94,18.17,7.2,0,17.78.37,29.37.43,0,0,.08.05.08.09C-.5,386.66,43,390.66,74.74,393.7c13.89,1.32,39.87,3.91,60,.48A94,94,0,0,0,122,405.27c-3.37,3.55,4.93,9.81,9.51,9.1,38.63-6.06,70.41-14.21,91.51-33.44,2.31,0,4.53,0,6.71-.1A100,100,0,0,0,231,399.19c1.22,6.78,8.7,11.64,17.24,12.22,18,1.21,38.39-14.21,46.74-24.86,5.51-7,8-12.14,7.58-17.43,1.75.77,3.38,1.56,5.16,2.27,23.14,9.9,48.2,25.76,73.5,31.64,1,.26,2.85.58,3.86-.22,3.57-3.27,3.52-8.2,1.45-13.53,4.53,3.27,9,6.62,13.71,9.65,7.58,4.93,12.46,10.54,22.21,12.18a2.89,2.89,0,0,0,2.75-1.08c9.23-14.11-2-33.08-13.94-47.85a446,446,0,0,0,53.35,16.07c16.17,3.63,43.79,13,59.53,6,9.86-4.34-25.93-28.51-57-47.56C485.63,342.52,504.86,347,524,351a3.27,3.27,0,0,0,3-.57c25.54,15,54.42,25.71,81.12,26.51,20.23.64,17.19-9.83,7.38-19.27-3-2.89-5.88-6.05-8.83-9.24,9.61,3.53,19.22,6.7,28,9.78,12.35,4.39,55.62,24,68.95,13.09a2.51,2.51,0,0,0,.63-3.29,24.4,24.4,0,0,0-1.74-2.63,246.44,246.44,0,0,0,47.56,9.18c7-11.57,3.62-21.72-6.38-30.65,3.34-1.32,6.28-2.92,8.22-5.2,1.49-1.62-1-4.24-2.52-5.28-28.87-20.84-76.53-26.44-119.69-29.54-1-.22-2.08-.42-3.1-.61,28.2-4.67,59.87-12.85,51.38-28.34-.87-1.55-2.81-3.68-5.26-3.68-10.53.07-20.67-4.92-32.3-4.62-15.21.35-30.67,1-45.79,2.73-23,2.68-45.86,5.5-68.89,8.25,12.12-5.84,23.27-13.66,33.6-22.28,8.16-6.81,12.07-18.4.29-23.93-20.14-9.48-61.7,3.8-82.32,5.86-26.76,2.67-53.89,5.75-81,7-.53-.43-1-.9-1.6-1.31-20.85-16-53.64-17.71-83-15,.14-1.46.33-3,.43-4.44.59-7.7,2.17-19.41-6.23-25.22-10.08-6.92-20.14.66-25.64,7.89a71.23,71.23,0,0,0-13.67,28.74v0c-15.25-13-32.34-25.09-52.58-24.58-20.95.5-12.6,18.73-.77,35.34H207.9a250.15,250.15,0,0,0-51.47-24.11c-14.39-4.77-48.58-18.12-62.67-8.05-7,5,4.06,15.12,19.45,25.37-12-3-23.95-5.76-36.21-8.09-12-2.35-48.43-13.16-56.59-1.3-1.11,1.6.34,3.7,1.64,5,12,12.07,34,19,50.61,26.54,6.8,3.05,13.52,6.18,20.28,9.29a12.16,12.16,0,0,1-.93,1c-33.6-7.66-70.93-13.29-73-.21-1.14,7.34,6.48,14.21,17.4,20.29C-6.77,282.25-57.86,269-88.28,246.56c-2.75-2-7.39-2.11-7.09,1.51,1.54,16.56,23.27,33.78,37.12,44.86,3.53,2.8,7.29,5.48,11.2,8.1-34.86-9.89-70.59-18.47-106.32-23.93C-159.74,276.15-239.85,263.4-225.46,288.55Z"/><path class="cls-48" d="M-93.46,69.68c10.88,23.85,46.79,31.91,69.9,38.23,7.7,2.12,15.68,4.18,23.69,6.18-2.5.43-4.91.78-7.29,1.25-7.28,1.43-38.28,5.28-31.61,18.9,10.65,21.88,60.2,18.21,79.32,18.16,5.71,0,14.11.38,23.31.44,0,0,.07,0,.07.09,21.15,14.86,55.68,18.86,80.86,21.89,11,1.33,31.65,3.91,47.59.49a84.33,84.33,0,0,0-10.08,11.08c-2.67,3.56,3.92,9.82,7.55,9.11,30.66-6.06,55.88-14.21,72.62-33.45,1.84,0,3.61,0,5.33-.09a125.48,125.48,0,0,0,1,18.36c1,6.78,6.9,11.63,13.68,12.22,14.29,1.21,30.46-14.22,37.1-24.86,4.37-7,6.32-12.14,6-17.43,1.38.76,2.68,1.56,4.1,2.27,18.36,9.9,38.25,25.75,58.33,31.63.8.27,2.26.58,3.06-.22,2.84-3.26,2.8-8.19,1.16-13.52,3.59,3.27,7.12,6.61,10.88,9.65,6,4.93,9.88,10.54,17.62,12.18a2.12,2.12,0,0,0,2.19-1.08c7.32-14.12-1.58-33.09-11.07-47.86a299.7,299.7,0,0,0,42.34,16.07c12.84,3.64,34.76,13,47.25,6,7.82-4.35-20.58-28.51-45.22-47.56,14.67,5.81,29.93,10.24,45.14,14.32a2.21,2.21,0,0,0,2.38-.58c20.27,15,43.19,25.72,64.38,26.52,16,.63,13.64-9.83,5.86-19.28-2.37-2.88-4.67-6-7-9.23,7.63,3.52,15.25,6.7,22.23,9.78,9.8,4.39,44.14,24,54.72,13.09a3,3,0,0,0,.5-3.3,26.43,26.43,0,0,0-1.38-2.63,160.53,160.53,0,0,0,37.75,9.19c5.59-11.57,2.87-21.72-5.06-30.66a16.28,16.28,0,0,0,6.51-5.19c1.19-1.62-.77-4.24-2-5.28-22.92-20.84-60.74-26.44-95-29.54-.8-.22-1.65-.43-2.45-.62,22.37-4.67,47.51-12.84,40.78-28.33-.7-1.55-2.24-3.69-4.19-3.69-8.35.08-16.4-4.92-25.63-4.62a314,314,0,0,0-36.34,2.74C539.2,53.2,521,56,502.75,58.77c9.63-5.85,18.47-13.67,26.67-22.29,6.48-6.8,9.58-18.4.23-23.93-16-9.48-49,3.8-65.33,5.87-21.24,2.66-42.77,5.75-64.27,7-.42-.42-.81-.89-1.27-1.3-16.55-16-42.57-17.71-65.91-15,.12-1.47.27-3,.34-4.45.47-7.69,1.73-19.4-4.94-25.21-8-6.92-16,.65-20.34,7.89A80.11,80.11,0,0,0,297.08,16h0C285,3,271.4-9,255.35-8.53c-16.63.51-10,18.73-.62,35.35h-4.25A183.11,183.11,0,0,0,209.63,2.71c-11.42-4.77-38.56-18.12-49.74-8-5.56,5,3.22,15.12,15.44,25.36-9.5-2.94-19-5.75-28.74-8.08-9.51-2.35-38.43-13.17-44.91-1.3-.89,1.6.27,3.7,1.3,4.95,9.54,12.06,27,19,40.16,26.53,5.4,3.06,10.73,6.18,16.1,9.29a10.1,10.1,0,0,1-.73,1c-26.67-7.65-56.3-13.28-57.95-.2-.91,7.33,5.14,14.2,13.81,20.29-34.27-9.12-74.81-22.38-99-44.8-2.18-2-5.86-2.12-5.62,1.51C11,45.75,28.25,63,39.25,74.05c2.8,2.8,5.79,5.48,8.89,8.1-27.67-9.88-56-18.46-84.39-23.92C-41.3,57.28-104.87,44.52-93.46,69.68Z"/><path class="cls-49" d="M1905.09,1032.58q-114.72-53.2-116-50.66t124.63,67.89Q1909.4,1041.2,1905.09,1032.58Z"/><path class="cls-49" d="M2439.71,1022.23q85.66-28.54,86.12-27.23t-87.33,33.6q-47,32.85-47.46,31.82T2439.71,1022.23Z"/><path class="cls-50" d="M2439.71,1022.23a603.25,603.25,0,0,1-145.78,54.43c-169.85,38.89-312.41-10.47-392.43-48.13,1.1,2.76,2.2,5.51,3.31,8.27a242.68,242.68,0,0,0,37.31,42.37s36.18,32.2,89.61,46.19c55.23,14.46,175,10.77,327.75-28.1Z"/><path class="cls-51" d="M1901.5,1028.53c1,2.72,2.36,6,3.94,9.81,0,0,2.67,6.4,5.51,12.6,3.59,7.83,125.77,167.11,300.76,136.36,125.91-22.12,204.59-129.53,229.56-166.83-47.41,31.43-143.34,84.8-271.16,86.16C2044.53,1108,1949.32,1058.45,1901.5,1028.53Z"/><path class="cls-50" d="M2125,1146.52a142.6,142.6,0,0,0,24.48,7.65c9.33,2,28,5.85,51.39,1.44a119.74,119.74,0,0,0,35.53-12.81,159.3,159.3,0,0,1-111.4,3.72Z"/><path class="cls-50" d="M2046.16,1136.48a128.75,128.75,0,0,0,95,36.47A210.75,210.75,0,0,1,2087.7,1159,213.81,213.81,0,0,1,2046.16,1136.48Z"/><path class="cls-52" d="M1700.54,971.78c1.51,1.79,18.89,21.67,47.73,20,28.4-1.64,43-22.74,44.36-24.78a83.61,83.61,0,0,1,.89,39.6,126.67,126.67,0,0,1-21.27,12.26c-7,3.18-14.33,6.08-18.56,6.79-28.58,4.76-51.15-15.81-54.92-19.36a70.39,70.39,0,0,1,1.77-34.52Z"/><path class="cls-52" d="M2522.05,982.86A67.15,67.15,0,0,0,2568.26,999c29.66-1.27,46.26-21.91,48.33-24.59.61,5.05,1.1,10.36,1.42,15.93.43,7.25.52,14.13.38,20.57a82.24,82.24,0,0,1-44.54,15.81A83.58,83.58,0,0,1,2521.1,1011a98.34,98.34,0,0,1-.34-17.76A97,97,0,0,1,2522.05,982.86Z"/></g><path class="cls-53" d="M1937.94,1044.49a47.19,47.19,0,0,0-9.54,15.91c-6.19,17.46.18,33.14,2.12,37.47,16.8,21.09,76.34,90.41,177.46,108.17,164.45,28.89,280.32-106.41,285.28-112.41a31,31,0,0,1-16.61-10.61c-10.92-13.94-3.92-31.88-3.56-32.75-36,19.81-123.84,61.75-240.84,54.2A440.13,440.13,0,0,1,1937.94,1044.49Z"/><path class="cls-54" d="M1930.62,1047.39c-.49.93,84.07,76.73,206.12,85.26,133.29,9.31,235.21-66.93,234.79-67.93s-101.54,72.21-234.79,63C2015,1119.26,1931.11,1046.47,1930.62,1047.39Z"/><path class="cls-54" d="M1927.74,1064.3c-.42.62,82.83,97.67,208.77,105.35,137.38,8.37,238.72-94.91,238.24-95.74s-104.61,100.23-240.13,91.5C2011.86,1157.49,1928.16,1063.67,1927.74,1064.3Z"/><path class="cls-54" d="M1928.7,1082.36c-.24.33,83.64,108,211.58,115.33,141.77,8.11,245.5-112.32,245-113.09S2276.08,1203.42,2136,1194.16C2012.64,1186,1929,1082,1928.7,1082.36Z"/><path class="cls-54" d="M2371.82,1050.5a32.53,32.53,0,0,0-3.77,11.9,30.48,30.48,0,0,0,3.65,19c6.43,11,18.15,13.52,20.15,13.92a2.45,2.45,0,0,0,2.59-3.2,43,43,0,0,1-11.66-11.43c-8.73-12.65-7.9-26.26-7.43-30.75a1.91,1.91,0,0,0-2.24-1.06A1.88,1.88,0,0,0,2371.82,1050.5Z"/><path class="cls-54" d="M2373.11,1052.15l151.07-66-151.77,69.29"/><path class="cls-54" d="M1936.88,1045.81,1792.63,967Z"/><path class="cls-54" d="M1934.53,1042.12A51.9,51.9,0,0,0,1927,1054c-7.78,17.08-4,33.69-2.12,40.07a4,4,0,0,0,2.59,4.59,3.76,3.76,0,0,0,3.07-.82,53.91,53.91,0,0,1,8.35-52.84,3,3,0,0,0-1.72-3.55A3,3,0,0,0,1934.53,1042.12Z"/><path class="cls-55" d="M2587.77,1062.14c-.72-15.61-6.86-28-18.3-28.37s-18.3,11.69-19.95,27.23,1.54,61.42-.31,123.72c-4.16,140.36-9.62,250.91-10.16,262.54s3.92,14.32,17.72,14.73,18.41-2,18.56-13.65,1.26-122.32,5.42-262.69C2582.6,1123.35,2588.49,1077.75,2587.77,1062.14Z"/><rect class="cls-52" x="2494.35" y="1267.93" width="135.65" height="23.72" rx="5.85" transform="translate(1206.98 3802.89) rotate(-88.3)"/><path class="cls-51" d="M2574.42,1066.2c-3.8-15.16-12.28-26.11-23.56-24.18s-15.62,15.08-14.16,30.64,13.67,59.9,24.19,121.33c23.72,138.41,40.26,247.85,42,259.35s6.68,13.26,20.28,10.93,17.65-5.62,15.49-17.06-23-120.14-46.69-258.55C2581.47,1127.23,2578.22,1081.36,2574.42,1066.2Z"/><rect class="cls-52" x="2580.57" y="1216.78" width="23.72" height="135.65" rx="5.85" transform="translate(-179.69 456.21) rotate(-9.72)"/></svg>