<?xml version="1.0" encoding="utf-8"?>
<!-- Generator: Adobe Illustrator 24.1.2, SVG Export Plug-In . SVG Version: 6.00 Build 0)  -->
<svg version="1.1" id="Слой_1" xmlns="http://www.w3.org/2000/svg" xmlns:xlink="http://www.w3.org/1999/xlink" x="0px" y="0px"
	 viewBox="0 0 2229.8 814.7" style="enable-background:new 0 0 2229.8 814.7;" xml:space="preserve">
<style type="text/css">
	.st0{fill:url(#SVGID_1_);}
	.st1{clip-path:url(#SVGID_4_);}
	.st2{clip-path:url(#SVGID_5_);}
	.st3{opacity:0.35;fill-rule:evenodd;clip-rule:evenodd;fill:#F6F8E2;enable-background:new    ;}
	.st4{fill:url(#SVGID_6_);}
	.st5{opacity:0.26;fill:url(#SVGID_7_);enable-background:new    ;}
	.st6{opacity:0.26;fill:url(#SVGID_8_);enable-background:new    ;}
	.st7{fill:url(#SVGID_9_);}
	.st8{fill:url(#SVGID_10_);}
	.st9{fill:url(#SVGID_11_);}
	.st10{fill:url(#SVGID_12_);}
	.st11{fill-rule:evenodd;clip-rule:evenodd;fill:url(#SVGID_13_);}
	.st12{fill:url(#SVGID_14_);}
	.st13{fill:url(#SVGID_15_);}
	.st14{fill-rule:evenodd;clip-rule:evenodd;fill:url(#SVGID_16_);}
	.st15{fill:url(#SVGID_17_);}
	.st16{fill:url(#SVGID_18_);}
	.st17{fill:url(#SVGID_19_);}
	.st18{fill:url(#SVGID_20_);}
	.st19{fill:url(#SVGID_21_);}
	.st20{fill:url(#SVGID_22_);}
	.st21{fill:url(#SVGID_23_);}
	.st22{fill:url(#SVGID_24_);}
	.st23{fill:url(#SVGID_25_);}
	.st24{fill:url(#SVGID_26_);}
	.st25{fill:url(#SVGID_27_);}
	.st26{fill:url(#SVGID_28_);}
	.st27{fill:url(#SVGID_29_);}
	.st28{fill:url(#SVGID_30_);}
	.st29{fill:url(#SVGID_31_);}
	.st30{fill:url(#SVGID_32_);}
	.st31{fill:url(#SVGID_33_);}
	.st32{fill:url(#SVGID_34_);}
	.st33{fill:url(#SVGID_35_);}
	.st34{fill:url(#SVGID_36_);}
	.st35{fill:url(#SVGID_37_);}
	.st36{fill:url(#SVGID_38_);}
	.st37{fill:url(#SVGID_39_);}
	.st38{fill:url(#SVGID_40_);}
	.st39{fill:url(#SVGID_41_);}
	.st40{fill:url(#SVGID_42_);}
	.st41{fill:url(#SVGID_43_);}
	.st42{fill:url(#SVGID_44_);}
	.st43{fill:url(#SVGID_45_);}
	.st44{fill:url(#SVGID_46_);}
	.st45{fill:url(#SVGID_47_);}
	.st46{fill:url(#SVGID_48_);}
	.st47{fill:url(#SVGID_49_);}
	.st48{fill:#FFFFFF;}
	.st49{fill:#B71104;}
	.st50{fill:#F61B03;}
	.st51{fill:#9D9EA0;}
	.st52{fill:#253546;}
	.st53{fill:#15212B;}
	.st54{fill:#DD1607;}
</style>
<linearGradient id="SVGID_1_" gradientUnits="userSpaceOnUse" x1="1120.2032" y1="803.53" x2="1115.6533" y2="464.75" gradientTransform="matrix(1 0 0 -1 0 816)">
	<stop  offset="0" style="stop-color:#93D3C3"/>
	<stop  offset="1" style="stop-color:#FBF69B"/>
</linearGradient>
<rect class="st0" width="2229.8" height="814.7"/>
<g>
	<defs>
		<rect id="SVGID_2_" width="2229.8" height="814.7"/>
	</defs>
	<defs>
		<rect id="SVGID_3_" width="2229.8" height="814.7"/>
	</defs>
	<clipPath id="SVGID_4_">
		<use xlink:href="#SVGID_2_"  style="overflow:visible;"/>
	</clipPath>
	<clipPath id="SVGID_5_" class="st1">
		<use xlink:href="#SVGID_3_"  style="overflow:visible;"/>
	</clipPath>
	<g class="st2">
		<path class="st3" d="M191.7,159.3c0,0,64.3-59.3,89.7-67.7s25.4,33.8,67.7,33.8s50.8-42.3,101.5-33.8
			c14.9,2.5,50.1,24.8,75.6,33.3c14.4,4.8,51.1-9.5,62.5,0c41.3,34.4,60.2,34.4,60.2,34.4H191.7z"/>
		<path class="st3" d="M52.2,247c18.2-22.2,31.5-25.8,40.3-24.8c12.6,1.4,16.2,12.1,30.4,12.4c13.9,0.3,15.3-9.7,32.6-12
			c17.6-2.4,32.1,5.8,37.1,8.9c6.7,4.3,12.5,9.8,17,16.4L52.2,247z"/>
		<path class="st3" d="M738.1,110.3c0,0,48-44.2,66.9-50.5S824,85,855.5,85s37.9-31.6,75.7-25.3c11.2,1.9,37.4,18.5,56.4,24.8
			c10.8,3.6,38.1-7.1,46.7,0c30.8,25.7,44.9,25.7,44.9,25.7L738.1,110.3z"/>
		<path class="st3" d="M1282.7,256.9c0,0,48-44.2,66.9-50.5s18.9,25.3,50.5,25.3s37.9-31.6,75.7-25.3c11.1,1.9,37.4,18.5,56.4,24.8
			c10.8,3.6,38.2-7.1,46.7,0c30.8,25.7,44.9,25.7,44.9,25.7H1282.7z"/>
		<path class="st3" d="M1816.6,163.4c0,0,48-36,66.9-41.2s18.9,20.6,50.5,20.6s37.9-25.8,75.7-20.6c11.1,1.5,37.4,15.1,56.4,20.3
			c10.8,2.9,38.1-5.8,46.7,0c30.8,20.9,44.9,20.9,44.9,20.9H1816.6z"/>
		
			<linearGradient id="SVGID_6_" gradientUnits="userSpaceOnUse" x1="1136.6897" y1="9364.8789" x2="1150.1598" y2="11829.3291" gradientTransform="matrix(1 0 0 0.33 0 -2393.1401)">
			<stop  offset="0" style="stop-color:#FCEE5A"/>
			<stop  offset="0.52" style="stop-color:#33431C"/>
		</linearGradient>
		<path class="st4" d="M-34,555.5c-9.1,158.7-18.2,317.3-27.3,476l2407.1,3l-11.2-463.3l-480,6.3c-737.1,9.7-881.6,11.6-1073.4,9.3
			C585.4,584.4,306,577.4-34,555.5z"/>
		
			<linearGradient id="SVGID_7_" gradientUnits="userSpaceOnUse" x1="1131.2623" y1="8590.1689" x2="1145.4424" y2="11185.4287" gradientTransform="matrix(1 0 0 0.33 0 -2393.1401)">
			<stop  offset="0" style="stop-color:#FCEE5A"/>
			<stop  offset="0.52" style="stop-color:#33431C"/>
		</linearGradient>
		<path class="st5" d="M-42.6,704.7c-6.2,132.4-12.5,264.8-18.7,397.2l2407.1,3l-11.2-463.3c-51.8,14-105.2,21.5-158.9,22.2
			c-93.4,1.3-135.2-18.8-227.4-20.5c-78.5-1.4-118.6,11.9-186.4,22.7c-146.3,23.3-261.8,9.5-408-8.1
			c-250.5-30-296.8-86.5-424.9-44.7c-44,14.4-142.5,54.8-147.8,43.9c-3-6.1,27.3-21.1,25.7-29.7C801.1,595.8,363,649.1-42.6,704.7z"
			/>
		
			<linearGradient id="SVGID_8_" gradientUnits="userSpaceOnUse" x1="1578.7179" y1="8830.0391" x2="1592.8979" y2="11425.2988" gradientTransform="matrix(1 0 0 0.33 0 -2393.1401)">
			<stop  offset="0" style="stop-color:#FCEE5A"/>
			<stop  offset="0.52" style="stop-color:#33431C"/>
		</linearGradient>
		<path class="st6" d="M404.9,783.5c-6.2,132.4-12.5,264.8-18.7,397.2l2407.1,3L2782,720.4c-51.9,14-105.3,21.5-159,22.2
			c-93.4,1.3-135.1-18.8-227.4-20.5c-78.5-1.4-118.6,11.9-186.4,22.7c-146.3,23.3-261.8,9.5-408-8.1
			c-250.5-30.1-296.8-86.5-424.9-44.7c-44,14.4-142.4,54.8-147.8,43.9c-3-6.1,27.3-21.1,25.7-29.7
			C1248.6,674.6,810.4,727.9,404.9,783.5z"/>
		
			<linearGradient id="SVGID_9_" gradientUnits="userSpaceOnUse" x1="1850.2677" y1="-141.3008" x2="1869.5377" y2="556.9893" gradientTransform="matrix(1 0 0 -1 0 816)">
			<stop  offset="0" style="stop-color:#30A0C5"/>
			<stop  offset="1" style="stop-color:#FFFFFF"/>
		</linearGradient>
		<path class="st7" d="M1585.4,428.3l58.5-44.6l23.6,4.5l26-3.4l73.3,9.4l112.2-74.3l315,197.5c-324,42.8-665.4,87.7-665.3,86.8h0.1
			C1537.2,601.9,1585.4,428.3,1585.4,428.3z"/>
		
			<linearGradient id="SVGID_10_" gradientUnits="userSpaceOnUse" x1="1026" y1="302.26" x2="1303.45" y2="302.26" gradientTransform="matrix(1 0 0 -1 0 816)">
			<stop  offset="0" style="stop-color:#30A0C5"/>
			<stop  offset="1" style="stop-color:#FFFFFF"/>
		</linearGradient>
		<polygon class="st8" points="1026,519.4 1056.9,485.8 1062.3,485.6 1095.5,483 1148.5,408.1 1165.3,416.9 1303.4,570.4 
			1083.4,619.4 		"/>
		
			<linearGradient id="SVGID_11_" gradientUnits="userSpaceOnUse" x1="1019.6078" y1="292.4711" x2="1591.4" y2="292.4711" gradientTransform="matrix(1 0 0 -1 0 816)">
			<stop  offset="0" style="stop-color:#30A0C5"/>
			<stop  offset="1" style="stop-color:#FFFFFF"/>
		</linearGradient>
		<path class="st9" d="M1591.4,654.1L1412,381.7l-159.1,100.8l-60.5,26.9l-26.9,2.7l-24.2-2.8l-49.4,26l-11.4,6
			c0,0-51.8,122.3-60.8,124S1591.4,654.1,1591.4,654.1z"/>
		
			<linearGradient id="SVGID_12_" gradientUnits="userSpaceOnUse" x1="562.6302" y1="245.0899" x2="1242.3099" y2="245.0899" gradientTransform="matrix(1 0 0 -1 0 816)">
			<stop  offset="0" style="stop-color:#30A0C5"/>
			<stop  offset="1" style="stop-color:#FFFFFF"/>
		</linearGradient>
		<path class="st10" d="M602.5,587.1l40.9-31.3l16.5,3.1l18.2-2.4l40.9-26.2l106.8-98.9l416.5,189.8c0,0-685.7,90.5-679.6,89
			S602.5,587.1,602.5,587.1z"/>
		
			<linearGradient id="SVGID_13_" gradientUnits="userSpaceOnUse" x1="1121.8602" y1="257.2378" x2="1216.2803" y2="704.8378" gradientTransform="matrix(1 0 0 -1 0 816)">
			<stop  offset="0" style="stop-color:#30A0C5"/>
			<stop  offset="1" style="stop-color:#FFFFFF"/>
		</linearGradient>
		<path class="st11" d="M787.8,624.5L1330,623l82.7-68l28.7,7.3l-61.3-90.7l-8-37.3l40-52.7l-159.1,100.8l-60.5,26.9l-26.9,2.7
			l-24.2-2.8l-101.9,56.2L787.8,624.5z"/>
		
			<linearGradient id="SVGID_14_" gradientUnits="userSpaceOnUse" x1="1190.7699" y1="370.77" x2="1926.9399" y2="370.77" gradientTransform="matrix(1 0 0 -1 0 816)">
			<stop  offset="0" style="stop-color:#30A0C5"/>
			<stop  offset="1" style="stop-color:#FFFFFF"/>
		</linearGradient>
		<path class="st12" d="M1530.8,430.4l44.1-48l7.7-0.3l47.5-3.7l75.7-107l23.9,12.6l197.3,219.2l-314.2,69.9l-422,45.9L1530.8,430.4
			z"/>
		
			<linearGradient id="SVGID_15_" gradientUnits="userSpaceOnUse" x1="1406" y1="379.82" x2="2338.0901" y2="379.82" gradientTransform="matrix(1 0 0 -1 0 816)">
			<stop  offset="0" style="stop-color:#30A0C5"/>
			<stop  offset="1" style="stop-color:#FFFFFF"/>
		</linearGradient>
		<path class="st13" d="M2338.1,622.7l-256.1-389l-227.1,144l-86.4,38.4l-38.4,3.8l-34.6-4l-45.4,42.9l-41.7,39.4l-73.7-0.1
			l-128.6,94c91.2,35.2,116.1,45.6,115.8,46.3c0,0-0.1,0-0.2,0.1S1898.9,631.3,2338.1,622.7z"/>
		
			<linearGradient id="SVGID_16_" gradientUnits="userSpaceOnUse" x1="1286.47" y1="355.235" x2="2123.75" y2="355.235" gradientTransform="matrix(1 0 0 -1 0 816)">
			<stop  offset="0" style="stop-color:#30A0C5"/>
			<stop  offset="1" style="stop-color:#FFFFFF"/>
		</linearGradient>
		<path class="st14" d="M1286.5,687.8l678.3-109.4l118-97.1l40.9,10.5l-87.6-129.5l-11.4-53.3l57.2-75.3l-227.1,144l-60.4,55l-64,8
			l-33.7-15.9l-64.8,97l-100-24.3L1286.5,687.8z"/>
		
			<linearGradient id="SVGID_17_" gradientUnits="userSpaceOnUse" x1="-95.19" y1="383.035" x2="910.18" y2="383.035" gradientTransform="matrix(1 0 0 -1 0 816)">
			<stop  offset="0" style="stop-color:#30A0C5"/>
			<stop  offset="1" style="stop-color:#FFFFFF"/>
		</linearGradient>
		<polygon class="st15" points="910.2,664 153.8,657.2 153.9,614.3 -95.2,592.6 154.9,296.9 254.7,204 256.3,202.5 257,201.9 
			278.5,214.5 332.5,314.4 333,314.3 355.9,308.6 357.6,308.1 366,321.2 375.3,321.2 468.2,462 513.2,504 521.5,504 687.7,442.1 
			904.7,623.7 		"/>
		
			<linearGradient id="SVGID_18_" gradientUnits="userSpaceOnUse" x1="13.71" y1="407.5899" x2="374.9" y2="407.5899" gradientTransform="matrix(1 0 0 -1 0 816)">
			<stop  offset="0" style="stop-color:#30A0C5"/>
			<stop  offset="1" style="stop-color:#FFFFFF"/>
		</linearGradient>
		<path class="st16" d="M363.4,475.3l-4.8-23.5l16.3,9.5l-32.5-116.1l8.2-4.7l14.1,10l-8.8-41.8l-0.1-0.5l-22.8,6.2l-0.4,0.1
			l-84.8,92.9l-12-83l7.6-5.1l5.4-8.6l7.4,13.7l-7.4-50.6l7.4-8.8l10.2,6.3l-10.1-68.6l-1.6,1.5l-99.8,92.9
			c-17.9,34.2-35.7,68.4-53.5,102.7l41.3,29.7L94.4,413L13.7,567.7l140.4-27.4l-0.2,74L325,551.5l10.8,5.3l-18.4-145.1l7.6-1.6
			L363.4,475.3z M216.6,441.5l-49.4,54.1l4.1-164.2l8.9-2.6l10,26.1l28.6-19.2C218.1,363.4,216.9,415.5,216.6,441.5z"/>
		
			<linearGradient id="SVGID_19_" gradientUnits="userSpaceOnUse" x1="360.8" y1="260.66" x2="890.23" y2="260.66" gradientTransform="matrix(1 0 0 -1 0 816)">
			<stop  offset="0" style="stop-color:#30A0C5"/>
			<stop  offset="1" style="stop-color:#FFFFFF"/>
		</linearGradient>
		<polygon class="st17" points="421.3,644.6 421.3,638.6 394.2,638.6 360.8,626.7 370.4,616.8 370.6,604.7 387.3,489.5 414,565.2 
			431,559.9 458.2,534.4 466.1,527.8 451,501.2 474.4,520.8 482.9,513.7 521.5,503.9 547.6,494 685,442.2 692.2,520.7 681.6,520.7 
			684.2,539.2 669.7,557.8 699.2,614.7 661.4,637.7 856,656.9 890.2,668.5 370.4,666.3 		"/>
		
			<linearGradient id="SVGID_20_" gradientUnits="userSpaceOnUse" x1="470.98" y1="285.465" x2="692.21" y2="285.465" gradientTransform="matrix(1 0 0 -1 0 816)">
			<stop  offset="0" style="stop-color:#30A0C5"/>
			<stop  offset="1" style="stop-color:#FFFFFF"/>
		</linearGradient>
		<polygon class="st18" points="681.6,520.7 487.5,559.9 471,557.8 684.2,504.2 690.4,501.2 692.2,520.7 		"/>
		
			<linearGradient id="SVGID_21_" gradientUnits="userSpaceOnUse" x1="836.6629" y1="7237.689" x2="847.2029" y2="9165.0283" gradientTransform="matrix(1 0 0 0.33 0 -2393.1401)">
			<stop  offset="0" style="stop-color:#30A0C5"/>
			<stop  offset="1" style="stop-color:#FFFFFF"/>
		</linearGradient>
		<path class="st19" d="M-542.9,566.6l-32.4,370.5l2855.1,2.4l-13.3-360.7l-569.4,4.9c-874.3,7.5-1045.7,9-1273.2,7.3
			C191.9,589.1-139.6,583.6-542.9,566.6z"/>
		
			<linearGradient id="SVGID_22_" gradientUnits="userSpaceOnUse" x1="839.1326" y1="7854.4692" x2="850.2028" y2="9879.7188" gradientTransform="matrix(1 0 0 0.33 0 -2393.1401)">
			<stop  offset="0" style="stop-color:#30A0C5"/>
			<stop  offset="1" style="stop-color:#FFFFFF"/>
		</linearGradient>
		<path class="st20" d="M-553,682.8c-7.4,103.1-14.8,206.2-22.2,309.2l2855.1,2.4l-13.3-360.7c-62.2,11-125.3,16.8-188.5,17.3
			c-110.8,1-160.3-14.7-269.7-15.9c-93.1-1.1-140.7,9.3-221.1,17.7c-173.6,18.1-310.5,7.3-483.9-6.3c-297.2-23.4-352-67.4-504-34.8
			c-52.2,11.2-169,42.7-175.3,34.2c-3.6-4.8,32.3-16.5,30.5-23.2C447.7,598-72,639.5-553,682.8z"/>
		
			<linearGradient id="SVGID_23_" gradientUnits="userSpaceOnUse" x1="1391.7892" y1="7588.4492" x2="1402.8494" y2="9613.6992" gradientTransform="matrix(1 0 0 0.33 0 -2393.1401)">
			<stop  offset="0" style="stop-color:#30A0C5"/>
			<stop  offset="1" style="stop-color:#FFFFFF"/>
		</linearGradient>
		<path class="st21" d="M-83.5,784.4C-90.9,887.4,47,975.6,39.6,1078.7l2855.1,2.4l-13.3-360.7c-62.3,11-125.3,16.8-188.5,17.3
			c-110.8,1-160.3-14.7-269.7-15.9c-93.1-1.1-140.7,9.3-221.1,17.7c-173.6,18.2-310.5,7.4-483.9-6.3c-297.2-23.4-352-67.4-504-34.8
			c-52.2,11.2-169,42.6-175.3,34.2c-3.6-4.8,32.3-16.4,30.5-23.2C1062.6,684.7,397.5,741.1-83.5,784.4z"/>
		
			<linearGradient id="SVGID_24_" gradientUnits="userSpaceOnUse" x1="58.7815" y1="238.106" x2="127.1115" y2="263.3861" gradientTransform="matrix(1 0 0 -1 0 816)">
			<stop  offset="0" style="stop-color:#33431C"/>
			<stop  offset="1" style="stop-color:#FCEE5A"/>
		</linearGradient>
		<path class="st22" d="M73.3,539.9c-2,5.6-4,11.2-5.9,16.8l3.4-1.2l-4.1,4.3l-4.5,12.5l3.5-1.6l-5.2,6.2c-1.3,3.8-2.7,7.5-4.1,11.3
			l5.4-0.9c-2.3,1.7-4.6,3.4-7,5.1l-2.1,5.8h39.4l-5-15.3l-5.8-5.3l4.9,2.5c-1.6-5-3.2-10-4.8-14.9l-5-5.4l3.9,1.9L73.3,539.9z"/>
		
			<linearGradient id="SVGID_25_" gradientUnits="userSpaceOnUse" x1="199.7425" y1="232.0603" x2="268.0724" y2="257.3503" gradientTransform="matrix(1 0 0 -1 0 816)">
			<stop  offset="0" style="stop-color:#33431C"/>
			<stop  offset="1" style="stop-color:#FCEE5A"/>
		</linearGradient>
		<path class="st23" d="M214.3,546c-2,5.6-4,11.2-5.9,16.8l3.4-1.2l-4.1,4.3l-4.5,12.5l3.5-1.6l-5.2,6.2c-1.3,3.8-2.7,7.5-4.1,11.3
			l5.4-1l-7,5.1l-2.1,5.8h39.3l-4.9-15.3l-5.8-5.3l4.9,2.5c-1.6-5-3.2-10-4.9-15l-5-5.4l3.9,1.9L214.3,546z"/>
		
			<linearGradient id="SVGID_26_" gradientUnits="userSpaceOnUse" x1="527.2276" y1="224.4894" x2="570.1476" y2="240.3694" gradientTransform="matrix(1 0 0 -1 0 816)">
			<stop  offset="0" style="stop-color:#33431C"/>
			<stop  offset="1" style="stop-color:#FCEE5A"/>
		</linearGradient>
		<path class="st24" d="M536.3,567.6l-3.7,10.5l2.1-0.7l-2.5,2.7l-2.9,7.8l2.2-1l-3.2,3.9l-2.6,7.1l3.4-0.6l-4.4,3.2l-1.3,3.6h24.7
			l-3.1-9.6l-3.6-3.3l3.1,1.6l-3-9.4l-3.2-3.4l2.4,1.2L536.3,567.6z"/>
		
			<linearGradient id="SVGID_27_" gradientUnits="userSpaceOnUse" x1="554.0007" y1="229.7782" x2="596.9207" y2="245.6581" gradientTransform="matrix(1 0 0 -1 0 816)">
			<stop  offset="0" style="stop-color:#33431C"/>
			<stop  offset="1" style="stop-color:#FCEE5A"/>
		</linearGradient>
		<path class="st25" d="M563.1,562.4c-1.2,3.5-2.5,7-3.7,10.5l2.1-0.7l-2.6,2.7l-2.8,7.8l2.2-1l-3.2,3.9l-2.6,7.1l3.4-0.6l-4.4,3.2
			l-1.3,3.6H575l-3.1-9.6l-3.7-3.3l3.1,1.6l-3-9.4l-3.2-3.4l2.4,1.2L563.1,562.4z"/>
		
			<linearGradient id="SVGID_28_" gradientUnits="userSpaceOnUse" x1="290.5073" y1="200.4173" x2="401.8273" y2="241.6073" gradientTransform="matrix(1 0 0 -1 0 816)">
			<stop  offset="0" style="stop-color:#33431C"/>
			<stop  offset="1" style="stop-color:#FCEE5A"/>
		</linearGradient>
		<path class="st26" d="M314.2,553.7l-9.6,27.3l5.5-1.9l-6.6,7c-2.5,6.8-4.9,13.5-7.4,20.3l5.7-2.6l-8.4,10.1
			c-2.2,6.1-4.4,12.2-6.7,18.3l8.9-1.5l-11.3,8.3c-1.1,3.1-2.3,6.3-3.4,9.4h64.1l-8.1-24.9l-9.4-8.7l8,4.1l-7.9-24.3l-8.2-8.8l6.3,3
			C321.8,577.2,318,565.5,314.2,553.7z"/>
		
			<linearGradient id="SVGID_29_" gradientUnits="userSpaceOnUse" x1="335.2606" y1="194.3185" x2="446.5805" y2="235.5085" gradientTransform="matrix(1 0 0 -1 0 816)">
			<stop  offset="0" style="stop-color:#33431C"/>
			<stop  offset="1" style="stop-color:#FCEE5A"/>
		</linearGradient>
		<path class="st27" d="M358.9,559.8c-3.2,9.1-6.4,18.2-9.6,27.3l5.5-1.9c-2.2,2.3-4.4,4.7-6.6,7l-7.4,20.3l5.7-2.6l-8.4,10.1
			l-6.7,18.3l8.9-1.5l-11.3,8.4c-1.1,3.1-2.3,6.3-3.4,9.4h64.1c-2.7-8.3-5.4-16.6-8.1-24.9l-9.5-8.7l8,4.1l-7.9-24.3l-8.3-8.8l6.3,3
			C366.5,583.3,362.7,571.6,358.9,559.8z"/>
		
			<linearGradient id="SVGID_30_" gradientUnits="userSpaceOnUse" x1="39.1045" y1="219.9348" x2="107.4445" y2="245.2148" gradientTransform="matrix(1 0 0 -1 0 816)">
			<stop  offset="0" style="stop-color:#33431C"/>
			<stop  offset="1" style="stop-color:#FCEE5A"/>
		</linearGradient>
		<path class="st28" d="M53.6,558.1c-2,5.6-3.9,11.2-5.9,16.8l3.4-1.2l-4.1,4.3l-4.5,12.5l3.5-1.6l-5.2,6.2l-4.1,11.3l5.4-0.9
			l-7,5.1l-2.1,5.8h39.3l-5-15.3l-5.8-5.3l4.9,2.5c-1.6-5-3.2-10-4.8-14.9l-5-5.4l3.9,1.9C58.3,572.5,56,565.3,53.6,558.1z"/>
		
			<linearGradient id="SVGID_31_" gradientUnits="userSpaceOnUse" x1="133.9708" y1="239.0307" x2="178.9108" y2="255.6608" gradientTransform="matrix(1 0 0 -1 0 816)">
			<stop  offset="0" style="stop-color:#33431C"/>
			<stop  offset="1" style="stop-color:#FCEE5A"/>
		</linearGradient>
		<path class="st29" d="M143.5,552l-3.9,11l2.2-0.8l-2.7,2.8l-3,8.2l2.3-1l-3.4,4.1l-2.7,7.4l3.6-0.6l-4.6,3.4l-1.4,3.8h25.9
			l-3.3-10l-3.8-3.5l3.2,1.7l-3.2-9.8l-3.3-3.6l2.6,1.2L143.5,552z"/>
		
			<linearGradient id="SVGID_32_" gradientUnits="userSpaceOnUse" x1="1634.4927" y1="435.5827" x2="2239.9727" y2="659.6227" gradientTransform="matrix(1 0 0 -1 0 816)">
			<stop  offset="0" style="stop-color:#563114"/>
			<stop  offset="1" style="stop-color:#744D30"/>
		</linearGradient>
		<path class="st30" d="M1746.2,752.7c14.3,4.1,17.8,5.6,17.5,6.1c-0.5,0.9-13.2-2.6-17.9,1c-3.2,2.4,0.2,5.6-2.2,7.1
			c-5.4,3.3-23.8-11.5-42.6-8.6c-6.8,1-6.1,3.2-16.4,5.5c-11.9,2.7-25.8,2.7-26.9,0.5c-0.5-1.2,2.1-4,25.4-11.7
			c8-210,16.7-420,26.1-630c3-66.7,6-133.4,9.1-200.1l14.4,185.7C1737.1,323.1,1741.7,537.9,1746.2,752.7z"/>
		
			<linearGradient id="SVGID_33_" gradientUnits="userSpaceOnUse" x1="1686.2218" y1="306.6392" x2="1977.4119" y2="948.3192" gradientTransform="matrix(1 0 0 -1 0 816)">
			<stop  offset="0" style="stop-color:#33431C"/>
			<stop  offset="1" style="stop-color:#FCEE5A"/>
		</linearGradient>
		<path class="st31" d="M1908.9,403c-15.5,2.1-30.8,5.1-46,8.9c1.7-1,3.3-2,4.8-3c6-4.1,15.4-10.6,16.1-16.7
			c0.1-1.4-1.9-1.3-3.1-0.6c-13.2,8.4-35.3,13.3-54,16.7c4.7-2.3,8-4.8,7.5-7.6c-0.9-4.9-17.1-2.8-31.6,0.1
			c-0.1-0.1-0.3-0.2-0.4-0.4c2.9-1.2,5.8-2.3,8.8-3.5c7.2-2.8,16.7-5.4,21.9-9.9c0.6-0.5,1.2-1.3,0.7-1.9
			c-3.5-4.4-19.3-0.4-24.5,0.5s-10.5,1.9-15.7,3c6.7-3.8,11.5-7.6,8.4-9.5c-6.1-3.8-20.9,1.2-27.1,3c-7.7,2.2-15.2,5.2-22.3,9h-2.3
			c5.1-6.2,8.7-13-0.3-13.2c-8.8-0.2-16.2,4.3-22.8,9.2l0,0c-1.1-4-3.1-7.7-5.9-10.7c-2.4-2.7-6.7-5.5-11.1-2.9
			c-3.6,2.2-3,6.5-2.7,9.4c0,0.5,0.1,1.1,0.2,1.6c-12.7-1-26.9-0.4-36,5.6c-0.3,0.1-0.5,0.3-0.7,0.5c-11.7-0.5-23.5-1.6-35.1-2.6
			c-8.9-0.8-26.9-5.7-35.7-2.2c-5.1,2.1-3.4,6.4,0.1,8.9c4.5,3.3,9.4,6.1,14.6,8.3c-10-1-19.9-2.1-29.8-3.1
			c-6.6-0.7-13.2-0.9-19.8-1c-5-0.1-9.4,1.8-14,1.7c-0.9,0.1-1.8,0.6-2.3,1.4c-3.7,5.8,10,8.8,22.3,10.6l-1.3,0.2
			c-18.7,1.2-39.3,3.3-51.8,11c-0.7,0.4-1.7,1.4-1.1,2c1,0.9,2.2,1.6,3.6,1.9c-4.3,3.3-5.8,7.1-2.8,11.4c7-0.6,13.8-1.7,20.6-3.4
			c-0.3,0.3-0.5,0.6-0.8,1c-0.3,0.4-0.2,0.9,0.2,1.2c0,0,0,0,0.1,0c5.8,4.1,24.5-3.3,29.9-4.9c3.8-1.1,8-2.3,12.1-3.6
			c-1.3,1.2-2.5,2.4-3.8,3.5c-4.2,3.5-5.6,7.4,3.2,7.2c11.6-0.3,24.1-4.3,35.1-9.9c0.4,0.3,0.8,0.3,1.3,0.2
			c8.3-1.5,16.6-3.2,24.6-5.3c-13.4,7.1-29,16.1-24.7,17.7c6.8,2.6,18.8-0.9,25.8-2.2c7.8-1.6,15.5-3.6,23.1-6
			c-5.2,5.5-10,12.6-6.1,17.9c0.3,0.3,0.8,0.5,1.2,0.4c4.2-0.6,6.3-2.7,9.6-4.5c2-1.1,4-2.4,5.9-3.6c-0.9,2-0.9,3.8,0.6,5
			c0.5,0.2,1.1,0.3,1.7,0.1c10.9-2.2,21.8-8.1,31.8-11.8c0.8-0.3,1.5-0.6,2.2-0.8c-0.2,2,0.9,3.9,3.3,6.5c3.6,4,12.4,9.7,20.2,9.3
			c3.7-0.2,6.9-2,7.5-4.6c0.4-2.3,0.6-4.6,0.5-6.9c0.9,0,1.9,0,2.9,0c9.1,7.2,22.9,10.2,39.6,12.5c2,0.3,5.6-2.1,4.1-3.4
			c-1.7-1.5-3.6-2.9-5.5-4.1c8.7,1.3,19.9,0.3,26-0.2c13.8-1.1,32.6-2.6,44.1-8.2l0,0c5,0,9.6-0.2,12.7-0.2
			c10.4,0,37.5,1.4,43.3-6.8c3.6-5.1-13.3-6.5-17.3-7c-1.3-0.2-2.6-0.3-4-0.5c4.4-0.7,8.7-1.5,12.9-2.3c12.6-2.4,32.2-5.4,38.1-14.3
			C1946.4,397.9,1911.7,402.7,1908.9,403z"/>
		
			<linearGradient id="SVGID_34_" gradientUnits="userSpaceOnUse" x1="1696.5551" y1="398.6859" x2="1953.8951" y2="965.8059" gradientTransform="matrix(1 0 0 -1 0 816)">
			<stop  offset="0" style="stop-color:#33431C"/>
			<stop  offset="1" style="stop-color:#FCEE5A"/>
		</linearGradient>
		<path class="st32" d="M1889.6,321.4c-13.4,2.1-26.6,5.1-39.7,8.9c1.5-1,2.9-2,4.2-3c5.2-4.1,13.3-10.6,13.8-16.7
			c0.1-1.4-1.6-1.3-2.6-0.6c-11.4,8.4-30.4,13.3-46.5,16.7c4.1-2.3,6.9-4.8,6.5-7.6c-0.8-4.9-14.7-2.8-27.2,0.1
			c-0.1-0.1-0.2-0.2-0.3-0.4c2.5-1.2,5-2.3,7.6-3.5c6.2-2.8,14.4-5.4,18.9-9.9c0.5-0.5,1-1.3,0.6-1.8c-3-4.4-16.7-0.4-21.1,0.5
			s-9,1.9-13.5,3c5.7-3.8,9.9-7.6,7.3-9.5c-5.3-3.8-18,1.2-23.4,3c-6.7,2.3-13.2,5.3-19.2,9h-2c4.4-6.2,7.5-13-0.3-13.2
			c-7.6-0.2-13.9,4.3-19.6,9.2l0,0c-0.9-3.9-2.6-7.6-5.1-10.7c-2.1-2.7-5.8-5.5-9.6-3c-3.1,2.2-2.5,6.5-2.3,9.4
			c0,0.5,0.1,1.1,0.2,1.7c-11-1-23.2-0.4-31,5.6c-0.2,0.2-0.4,0.3-0.6,0.5c-10.1-0.5-20.2-1.6-30.2-2.6c-7.7-0.8-23.2-5.7-30.7-2.2
			c-4.4,2.1-2.9,6.4,0.1,8.9c3.8,3.3,8,6.1,12.5,8.3c-8.6-1-17.1-2.1-25.7-3.1c-5.6-0.7-11.4-0.9-17.1-1c-4.3-0.1-8.1,1.8-12.1,1.7
			c-0.9,0.1-1.6,0.6-2,1.4c-3.2,5.8,8.7,8.8,19.2,10.6l-1.2,0.2c-16.1,1.2-33.9,3.3-44.7,11c-0.6,0.4-1.5,1.4-0.9,2
			c0.8,0.9,1.9,1.5,3.1,1.9c-3.7,3.3-5,7.1-2.4,11.4c6-0.6,12-1.7,17.8-3.4c-0.2,0.3-0.5,0.7-0.7,1c-0.2,0.4-0.1,0.9,0.2,1.2
			c5,4.1,21.1-3.2,25.7-4.9c3.3-1.1,6.9-2.3,10.4-3.6c-1.1,1.2-2.2,2.4-3.3,3.5c-3.7,3.5-4.8,7.4,2.8,7.2c10-0.3,20.7-4.3,30.3-9.9
			c0.3,0.3,0.7,0.3,1.1,0.2c7.2-1.5,14.3-3.2,21.2-5.4c-11.6,7.1-24.9,16.1-21.3,17.8c5.9,2.6,16.2-0.9,22.2-2.2
			c6.8-1.6,13.4-3.6,19.9-6c-4.5,5.5-8.7,12.6-5.2,17.9c0.2,0.3,0.6,0.5,1,0.4c3.6-0.6,5.5-2.7,8.3-4.5c1.8-1.1,3.4-2.4,5.1-3.6
			c-0.8,2-0.8,3.8,0.5,5c0.4,0.2,1,0.3,1.4,0.1c9.4-2.2,18.8-8.1,27.4-11.8c0.7-0.3,1.3-0.6,1.9-0.9c-0.1,2,0.8,3.9,2.8,6.5
			c3.1,4,10.7,9.7,17.4,9.3c3.2-0.2,6-2,6.4-4.6c0.4-2.3,0.5-4.6,0.5-6.9c0.8,0,1.6,0,2.5,0c7.9,7.2,19.7,10.2,34.1,12.5
			c1.7,0.3,4.8-2.1,3.6-3.4c-1.5-1.5-3-2.9-4.7-4.1c7.5,1.3,17.2,0.3,22.4-0.2c11.8-1.1,28.1-2.6,38-8.2l0,0c4.3,0,8.3-0.2,11-0.2
			c9,0,32.3,1.4,37.3-6.8c3.1-5.1-11.4-6.5-14.9-7c-1.1-0.2-2.3-0.3-3.4-0.5c3.8-0.7,7.5-1.5,11.1-2.3c10.9-2.4,27.8-5.4,32.9-14.3
			C1921.9,316.2,1892,321,1889.6,321.4z"/>
		
			<linearGradient id="SVGID_35_" gradientUnits="userSpaceOnUse" x1="1691.0645" y1="502.4417" x2="1905.0244" y2="973.9417" gradientTransform="matrix(1 0 0 -1 0 816)">
			<stop  offset="0" style="stop-color:#33431C"/>
			<stop  offset="1" style="stop-color:#FCEE5A"/>
		</linearGradient>
		<path class="st33" d="M1845.9,230.8c-10.7,2.2-21.2,5.2-31.5,8.9c1.2-1,2.3-2,3.3-3c4.1-4.1,10.5-10.6,11-16.7
			c0.1-1.4-1.3-1.3-2.1-0.6c-9,8.4-24.1,13.3-36.9,16.7c3.2-2.3,5.5-4.8,5.2-7.6c-0.6-4.9-11.7-2.8-21.6,0.1
			c-0.1-0.1-0.2-0.2-0.3-0.4c2-1.2,4-2.3,6-3.5c4.9-2.8,11.4-5.4,15-9.9c0.4-0.5,0.8-1.3,0.5-1.9c-2.4-4.4-13.2-0.4-16.8,0.5
			s-7.2,1.9-10.7,3c4.6-3.8,7.8-7.6,5.8-9.5c-4.2-3.8-14.3,1.2-18.6,3c-5.4,2.3-10.6,5.4-15.2,9h-1.6c3.5-6.2,6-13-0.2-13.2
			c-6-0.2-11,4.3-15.6,9.2l0,0c-0.6-3.8-2-7.4-4-10.7c-1.6-2.7-4.6-5.5-7.6-2.9c-2.5,2.2-2,6.5-1.8,9.4c0,0.5,0.1,1.1,0.1,1.7
			c-8.7-1-18.4-0.4-24.6,5.6c-0.2,0.1-0.3,0.3-0.5,0.5c-8-0.5-16.1-1.6-24-2.6c-6.1-0.8-18.4-5.7-24.4-2.2c-3.5,2.1-2.3,6.4,0.1,8.9
			c3,3.2,6.3,6,10,8.3c-6.8-1-13.6-2.1-20.4-3.1c-4.5-0.6-9-0.9-13.6-1c-3.4-0.1-6.4,1.8-9.6,1.7c-0.7,0-1.3,0.8-1.6,1.4
			c-2.5,5.8,6.9,8.8,15.2,10.6l-0.9,0.2c-12.8,1.1-26.9,3.2-35.4,11c-0.5,0.4-1.2,1.4-0.8,2c0.6,0.8,1.5,1.5,2.4,1.9
			c-3,3.3-4,7.1-1.9,11.4c4.8-0.6,9.5-1.7,14.1-3.4c-0.2,0.3-0.4,0.7-0.5,1c-0.2,0.4-0.1,0.9,0.2,1.2c4,4.1,16.8-3.2,20.4-4.9
			c2.6-1.1,5.4-2.3,8.3-3.6c-0.9,1.2-1.7,2.4-2.6,3.4c-2.9,3.5-3.8,7.4,2.2,7.2c7.9-0.3,16.5-4.3,24-9.9c0.2,0.2,0.6,0.3,0.9,0.2
			c5.7-1.5,11.3-3.2,16.8-5.4c-9.2,7.1-19.8,16.1-16.9,17.8c4.7,2.6,12.8-0.9,17.6-2.2c5.4-1.6,10.7-3.6,15.8-6
			c-3.5,5.5-6.9,12.6-4.1,17.9c0.2,0.3,0.5,0.5,0.8,0.4c2.9-0.6,4.3-2.7,6.6-4.5c1.4-1.1,2.7-2.4,4.1-3.6c-0.6,2-0.6,3.8,0.4,5
			c0.3,0.3,0.8,0.2,1.2,0.1c7.5-2.2,14.9-8.1,21.8-11.8c0.5-0.3,1-0.6,1.5-0.9c-0.1,2,0.6,3.9,2.2,6.5c2.5,4,8.5,9.7,13.8,9.3
			c2.6-0.2,4.7-2,5.1-4.6c0.3-2.3,0.4-4.6,0.4-6.9c0.7,0,1.3,0,2,0c6.3,7.2,15.7,10.2,27.1,12.5c1.4,0.3,3.8-2.1,2.8-3.4
			c-1.1-1.5-2.4-2.9-3.8-4.1c6,1.3,13.6,0.3,17.8-0.2c9.4-1.1,22.3-2.6,30.2-8.2l0,0c3.4,0,6.6-0.2,8.7-0.2c7.1,0,25.6,1.4,29.6-6.8
			c2.5-5.1-9.1-6.5-11.8-7.1c-0.9-0.2-1.8-0.3-2.7-0.5c3-0.8,6-1.5,8.8-2.3c8.6-2.4,22-5.4,26.1-14.3
			C1871.5,225.7,1847.8,230.5,1845.9,230.8z"/>
		
			<linearGradient id="SVGID_36_" gradientUnits="userSpaceOnUse" x1="1697.5223" y1="598.4544" x2="1864.8523" y2="967.1944" gradientTransform="matrix(1 0 0 -1 0 816)">
			<stop  offset="0" style="stop-color:#33431C"/>
			<stop  offset="1" style="stop-color:#FCEE5A"/>
		</linearGradient>
		<path class="st34" d="M1811.4,149.2c-7.8,2.2-15.4,5.2-22.7,8.9c0.8-1,1.6-2,2.4-3c3-4.1,7.6-10.6,7.9-16.7
			c0.1-1.4-0.9-1.3-1.5-0.6c-6.5,8.4-17.4,13.3-26.6,16.7c2.3-2.3,4-4.8,3.7-7.6c-0.4-4.9-8.4-2.8-15.6,0.1
			c-0.1-0.1-0.1-0.2-0.2-0.4c1.4-1.2,2.9-2.3,4.3-3.5c3.5-2.8,8.2-5.4,10.8-9.9c0.4-0.5,0.5-1.2,0.3-1.9c-1.7-4.4-9.5-0.4-12.1,0.5
			s-5.2,1.9-7.7,3c3.3-3.8,5.6-7.6,4.2-9.5c-3-3.8-10.3,1.2-13.4,3c-4.1,2.4-7.8,5.5-11,9h-1.1c2.5-6.2,4.3-13-0.2-13.2
			c-4.3-0.2-8,4.3-11.2,9.2l0,0c-0.4-3.7-1.4-7.3-2.9-10.7c-1.2-2.7-3.3-5.5-5.5-2.9c-1.8,2.2-1.4,6.5-1.3,9.4
			c0,0.5,0.1,1.1,0.1,1.7c-6.3-1-13.3-0.4-17.7,5.6c-0.1,0.1-0.2,0.3-0.3,0.5c-5.8-0.4-11.6-1.6-17.3-2.6
			c-4.4-0.8-13.3-5.7-17.6-2.2c-2.5,2.1-1.7,6.4,0.1,8.9c2,3.1,4.4,5.9,7.2,8.3c-4.9-1-9.8-2.1-14.7-3.1c-3.2-0.6-6.5-0.9-9.8-1
			c-2.5-0.1-4.6,1.8-6.9,1.7c-0.5,0-0.9,0.8-1.1,1.4c-1.8,5.8,4.9,8.8,11,10.6c-0.2,0.1-0.4,0.1-0.7,0.2c-9.2,1.2-19.4,3.3-25.5,11
			c-0.3,0.4-0.9,1.4-0.5,2c0.4,0.8,1,1.5,1.8,1.9c-2.3,3.4-2.8,7.6-1.4,11.4c3.5-0.6,7-1.7,10.1-3.4c-0.1,0.3-0.3,0.6-0.4,1
			c-0.1,0.4-0.1,0.9,0.1,1.2c2.8,4.1,12.1-3.3,14.7-4.9c1.9-1.1,3.9-2.3,6-3.6c-0.6,1.2-1.3,2.4-1.9,3.4c-2.1,3.5-2.7,7.4,1.6,7.2
			c5.7-0.3,11.8-4.3,17.3-9.9c0.1,0.2,0.4,0.3,0.6,0.2c4.2-1.5,8.2-3.3,12.1-5.3c-6.6,7.1-14.3,16.1-12.2,17.8
			c3.4,2.6,9.3-0.9,12.7-2.3c4-1.6,7.8-3.6,11.4-6c-2.6,5.5-5,12.6-3,17.9c0.1,0.3,0.3,0.4,0.6,0.4c2.1-0.6,3.1-2.7,4.7-4.6
			c1-1.1,2-2.4,2.9-3.6c-0.4,2-0.4,3.8,0.3,5.1c0.2,0.3,0.6,0.2,0.8,0.1c5.4-2.2,10.7-8.1,15.7-11.8c0.4-0.3,0.7-0.6,1.1-0.9
			c0,2.3,0.6,4.5,1.6,6.5c1.8,4,6.1,9.7,10,9.3c1.8-0.2,3.4-2,3.7-4.6c0.2-2.3,0.3-4.6,0.3-6.9c0.5,0,0.9,0,1.4,0
			c4.5,7.2,11.3,10.2,19.5,12.5c1,0.3,2.8-2.1,2-3.4c-0.8-1.5-1.7-2.8-2.7-4.1c4.3,1.3,9.8,0.3,12.8-0.2c6.8-1.1,16-2.6,21.7-8.2
			l0,0c2.5,0,4.7-0.2,6.3-0.2c5.1,0,18.4,1.4,21.3-6.8c1.8-5.1-6.5-6.5-8.5-7.1c-0.6-0.2-1.3-0.3-2-0.5c2.2-0.8,4.3-1.5,6.4-2.3
			c6.2-2.4,15.8-5.4,18.8-14.3C1829.8,144.1,1812.7,148.8,1811.4,149.2z"/>
		
			<linearGradient id="SVGID_37_" gradientUnits="userSpaceOnUse" x1="1630.6451" y1="647.1337" x2="1993.7451" y2="1119.3438" gradientTransform="matrix(1 0 0 -1 0 816)">
			<stop  offset="0" style="stop-color:#33431C"/>
			<stop  offset="1" style="stop-color:#FCEE5A"/>
		</linearGradient>
		<path class="st35" d="M1767.3,90.6c5.1-2,10.2-4.7,9.4-7c-0.9-2.8-10.4-1.4-17.4,0.7c-6.4-3.9-15.1-7.1-20.9-9.2
			c-0.9-3.3-2.6-6.3-6.1-6.8c-0.7-0.1-1.3,0.2-1.8,0.6c-0.8,0.7-1.4,1.7-1.6,2.8l-0.6-0.2c-1.1-1.4-2.3-2.8-3.6-4
			c-2.7-2.6-7-5.4-11.8-6.2c-4.3-0.7-3.4,3.2-1.5,7.2c-2.4-0.4-4.7-0.8-7-1.2c-5.4-1-10.7-2.5-15.9-4.4c-2.5-0.9-4.6-2.5-7.4-2.8
			c-1.2-0.1-2.5,0.8-2.3,1.6c0.6,2.8,2.8,5.5,5.9,7.7c-7.1-0.6-14.2-1.1-21.2-1.8c-15.8-1.5-28.8-5.3-43.4-9.1
			c-0.9-0.3-2.1,0.8-1.9,1.3c2.1,7.8,14.5,16.2,23,21.6c4.8,3,11.1,5.5,16.8,7.8c0.6,0.3,1.3,0.5,1.9,0.7
			c-4.9,0.2-10.6,0.3-14.6-0.9c-0.8-0.3-1.7,0.6-1.9,1c-1.8,3.3,8.3,7.9,11.4,9c4.1,1.3,8.4,1.9,12.8,1.9c1.3,0.2,2.6,0.3,3.9,0.4
			c-3.1,0.8-6.1,1.9-9,3.2c4.1,0.4,8.1,0.5,12.2,0.4c1.7,0,3.3-0.1,4.9-0.2c-3.8,1.3-6.3,3-5.6,4.9c1.4,4.2,20.4,1.9,23.9,1.5
			c7.3-0.8,14.6-2.1,21.7-4c-0.3,0.3-0.8,0.6-1.1,1s-0.5,1,0.3,1.2c5,1.4,9.8-0.1,14.6-1.3c3.9-1,7.8-2.3,11.5-3.8
			c-1.1,3.7,3.4,4.4,8.3,3.8c6.6-0.8,13.8-4,13.5-6.9c5.8-0.3,12.2-1.1,15.6-3.8C1790,91.2,1777.3,89.9,1767.3,90.6z"/>
		
			<linearGradient id="SVGID_38_" gradientUnits="userSpaceOnUse" x1="1486.0172" y1="473.8299" x2="2063.5371" y2="1224.8999" gradientTransform="matrix(1 0 0 -1 0 816)">
			<stop  offset="0" style="stop-color:#33431C"/>
			<stop  offset="1" style="stop-color:#FCEE5A"/>
		</linearGradient>
		<path class="st36" d="M1822.3,12.3c0-0.3-0.1-0.6-0.9-0.7c-4.3-0.5-8.6,0.1-12.8,0.6c0.3-0.3,0.6-0.6,0.8-1
			c3.8-1.1,7.3-2.3,10.7-3.6c0.8-0.3,2.9-2,0.1-1.8c-5.2,0.4-10.3,1.1-15.4,2.1c-0.7-0.1-1.4-0.1-2.1-0.2c7.3-2.4,13.3-5.3,17.3-9.3
			c0.7-0.7-0.8-1.2-2.3-0.8c-9.7,2.9-19.6,5.1-29.6,6.5c-8.5,1.2-17,1.9-25.6,2.2c0-0.6-0.4-1.1-1.3-1.6c-3.2-1.5-8-1.5-12.9-0.9
			c3.3-1.2,6.2-2.5,6.4-4.1c0.1-0.4-0.3-0.9-1.6-0.8c-1.9,0.2-3.7,0.4-5.6,0.7c2.8-5.3,3-10.3-6.2-8c-11.6,2.8-19.5,9.8-23.2,16.4
			c-2.2-3.3-5.9-5.4-9.9-5.6c-1.3-0.1-2.6,0.3-3.6,1.1c-2,1.9-2.8,4.7-2.1,7.4c-3.1-1.9-6.3-3.5-9.7-4.6c-3.3-1.1-10.5-3.1-14.8-1.6
			c-5,1.8-1.2,4.3,0.8,6.2c1.6,1.5,3.4,2.9,5.2,4.1c-2.3-0.8-4.9-0.9-7.2-0.3c-3.8,1.3-2.7,3.6-1.5,5.3c1,1.6,1.9,3.3,2.7,5.1
			c-8.9-2.6-20.1-4-29-0.8c-8.1,2.9,2.4,5.5,12.9,7.2c-6.1,0.7-11.3,2-12,4.2c-1.6,4.9,15.4,4.7,27.7,4l0.6,0.5
			c-3.4,1.1-6.1,2.5-7.5,4.7c-1.6,2.8,13.2,2.2,16.1,2c10.3-0.5,19.3-6.7,24.5-9.6c1-0.6,1.9-1.2,2.9-1.8c-0.4,0.9-0.4,1.9-0.1,2.8
			c0.1,0.2,0.3,0.3,0.7,0.3c14,1.1,32-5.8,40.7-12.6c0.6,2.9,2.6,5.4,8.1,4.6c4.6-0.7,6-2.6,5.9-4.8l1.6-0.1
			c8,2.4,18.8,3.6,25.8,0.2c6.1-3-1.4-3.9-9.2-4.7c3-0.4,6-0.9,8.8-1.4C1803.4,19.1,1821.8,16.3,1822.3,12.3z"/>
		
			<linearGradient id="SVGID_39_" gradientUnits="userSpaceOnUse" x1="2348.7205" y1="442.9585" x2="2954.2004" y2="666.9985" gradientTransform="matrix(-1 0 0 -1 4586.9502 816)">
			<stop  offset="0" style="stop-color:#563114"/>
			<stop  offset="1" style="stop-color:#744D30"/>
		</linearGradient>
		<path class="st37" d="M2128,741.5c-5.1,3.7-11.2,5.9-17.5,6.1c-6,0.1-10-1.8-10.7-0.5c-1,1.8,4.3,8.9,10.6,9.3
			c7.9,0.5,14.2-10,18-7.8c0.5,0.3,0.9,0.8,1.1,1.3c1.1,3.5-7.7,8.6-7.3,9.2c0.5,0.8,14.6-12.2,30.6-12.1
			c17.4,0,30.9,15.4,31.8,14.2s-12.5-12.7-11.4-14.1c0.3-0.3,1.4,0.1,3.6,0.9c3.4,1.2,4.8,2.9,12.8,4.7c11.9,2.7,25.9,2.7,26.9,0.5
			c0.5-1.2-2.1-4-25.4-11.7c-8-210-16.7-420-26.1-630c-3-66.7-6-133.4-9.1-200.1l-14.4,185.7C2137,311.9,2132.5,526.7,2128,741.5z"
			/>
		
			<linearGradient id="SVGID_40_" gradientUnits="userSpaceOnUse" x1="2173.9175" y1="312.6492" x2="2461.5974" y2="946.6193" gradientTransform="matrix(1 0 0 -1 -69.76 816)">
			<stop  offset="0" style="stop-color:#33431C"/>
			<stop  offset="1" style="stop-color:#FCEE5A"/>
		</linearGradient>
		<path class="st38" d="M2329,396.7c-0.9,0.1-1.6,0.2-2.1,0.3c-15.5,2.1-30.9,5.1-46.1,8.9c1.7-1,3.3-2,4.9-3
			c6-4.1,15.4-10.6,16.1-16.7c0.1-1.4-1.9-1.3-3.1-0.6c-13.2,8.4-35.3,13.3-54,16.7c4.7-2.3,8-4.8,7.5-7.6
			c-0.9-4.9-17.1-2.8-31.6,0.1c-0.1-0.1-0.3-0.2-0.4-0.4c2.9-1.2,5.8-2.3,8.8-3.5c7.2-2.8,16.7-5.4,21.9-9.9
			c0.6-0.5,1.2-1.2,0.7-1.8c-3.5-4.4-19.3-0.4-24.5,0.5s-10.5,1.9-15.7,3c6.7-3.8,11.5-7.6,8.4-9.5c-6.1-3.8-20.9,1.2-27.1,3
			c-7.7,2.2-15.2,5.2-22.3,9h-2.3c5.1-6.2,8.7-13-0.3-13.2c-8.8-0.2-16.2,4.3-22.8,9.2l0,0c-1.1-4-3.1-7.7-5.9-10.7
			c-2.4-2.7-6.7-5.5-11.1-3c-3.6,2.2-2.9,6.5-2.7,9.4c0,0.5,0.1,1.1,0.2,1.7c-12.7-1-26.9-0.4-36,5.6c-0.3,0.2-0.5,0.3-0.7,0.5
			c-11.7-0.5-23.5-1.6-35.1-2.6c-8.9-0.8-26.9-5.7-35.7-2.2c-5.1,2.1-3.4,6.4,0.1,8.9c4.5,3.3,9.4,6.1,14.6,8.3
			c-10-1-19.9-2.1-29.8-3.1c-6.6-0.7-13.2-0.9-19.8-1c-5-0.1-9.4,1.8-14,1.7c-0.9,0.1-1.8,0.6-2.3,1.4c-3.7,5.8,10,8.8,22.3,10.6
			l-1.3,0.2c-18.7,1.2-39.3,3.3-51.8,11c-0.7,0.4-1.7,1.4-1.1,2c1,0.9,2.2,1.6,3.6,1.9c-4.3,3.3-5.8,7.1-2.8,11.4
			c7-0.6,13.8-1.7,20.6-3.4c-0.3,0.3-0.5,0.7-0.8,1c-0.3,0.4-0.2,0.9,0.2,1.2c0,0,0,0,0.1,0c5.8,4.1,24.5-3.2,29.9-4.9
			c3.8-1.1,8-2.3,12.1-3.6c-1.3,1.2-2.5,2.4-3.8,3.5c-4.3,3.5-5.6,7.4,3.2,7.2c11.6-0.3,24.1-4.3,35.1-9.9c0.4,0.3,0.9,0.3,1.3,0.2
			c8.3-1.5,16.6-3.2,24.6-5.3c-13.4,7.1-28.9,16.1-24.7,17.7c6.8,2.6,18.8-0.9,25.8-2.2c7.8-1.6,15.5-3.6,23.1-6
			c-5.2,5.5-10,12.6-6,17.9c0.3,0.3,0.8,0.5,1.2,0.4c4.2-0.6,6.3-2.7,9.6-4.5c2-1.1,4-2.4,5.9-3.6c-0.9,2-0.9,3.8,0.6,5
			c0.5,0.2,1.1,0.3,1.7,0.1c11-2.2,21.8-8.1,31.8-11.8c0.8-0.3,1.5-0.6,2.2-0.9c-0.2,2,0.9,3.9,3.3,6.5c3.6,4,12.4,9.7,20.2,9.3
			c3.7-0.2,6.9-2,7.5-4.6c0.4-2.3,0.6-4.6,0.5-6.9c1,0,1.9,0,2.9,0c9.1,7.2,22.9,10.2,39.6,12.5c2,0.3,5.6-2.1,4.1-3.4
			c-1.7-1.5-3.6-2.9-5.5-4.1c8.7,1.3,19.9,0.3,26-0.2c13.7-1.1,32.6-2.6,44.1-8.2l0,0c5,0,9.6-0.2,12.7-0.2
			c10.4,0,37.5,1.4,43.3-6.8c3.6-5.1-13.3-6.5-17.3-7c-1.3-0.2-2.6-0.3-4-0.5c4.4-0.7,8.7-1.5,12.9-2.3c12.3-2.3,38.7-9.5,38.1-14.3
			C2357.7,397.7,2342.3,395.2,2329,396.7z"/>
		
			<linearGradient id="SVGID_41_" gradientUnits="userSpaceOnUse" x1="2409.4446" y1="418.6488" x2="2666.7847" y2="985.7688" gradientTransform="matrix(-1 0 0 -1 4586.9502 816)">
			<stop  offset="0" style="stop-color:#33431C"/>
			<stop  offset="1" style="stop-color:#FCEE5A"/>
		</linearGradient>
		<path class="st39" d="M1957.6,305.6c5.1,8.9,22,11.9,32.9,14.3c3.6,0.8,7.4,1.6,11.1,2.3c-1.2,0.2-2.3,0.3-3.4,0.5
			c-3.4,0.5-18,2-14.9,7.1c5,8.2,28.3,6.8,37.3,6.8c2.7,0,6.6,0.1,11,0.2l0,0c10,5.5,26.2,7,38,8.2c5.2,0.5,14.9,1.5,22.4,0.2
			c-1.7,1.2-3.3,2.6-4.7,4.1c-1.3,1.3,1.8,3.7,3.6,3.4c14.4-2.3,26.3-5.3,34.1-12.5c0.9,0,1.7,0,2.5,0c-0.1,2.3,0.1,4.6,0.5,6.9
			c0.5,2.5,3.3,4.3,6.4,4.6c6.7,0.5,14.3-5.3,17.4-9.3c2.1-2.6,3-4.5,2.8-6.5c0.6,0.3,1.3,0.6,1.9,0.9c8.6,3.7,18,9.6,27.4,11.8
			c0.5,0.2,1,0.1,1.4-0.1c1.3-1.2,1.3-3.1,0.5-5c1.7,1.2,3.4,2.5,5.1,3.6c2.8,1.8,4.6,3.9,8.3,4.5c0.4,0.1,0.8-0.1,1-0.4
			c3.4-5.3-0.7-12.4-5.2-17.9c6.5,2.4,13.1,4.4,19.9,6c6,1.4,16.4,4.9,22.2,2.2c3.7-1.6-9.7-10.6-21.3-17.8
			c6.9,2.2,14.1,3.8,21.2,5.4c0.4,0.1,0.8,0,1.1-0.2c9.5,5.6,20.3,9.6,30.3,9.9c7.6,0.2,6.4-3.7,2.8-7.2c-1.1-1.1-2.2-2.3-3.3-3.4
			c3.6,1.3,7.2,2.5,10.4,3.6c4.6,1.6,20.8,9,25.7,4.9c0.4-0.3,0.5-0.8,0.2-1.2c-0.2-0.3-0.4-0.7-0.6-1c5.8,1.7,11.7,2.9,17.8,3.4
			c2.6-4.3,1.4-8.1-2.4-11.4c1.2-0.4,2.2-1.1,3.1-1.9c0.6-0.6-0.4-1.6-0.9-2c-10.8-7.8-28.6-9.9-44.7-11c-0.4-0.1-0.8-0.2-1.2-0.2
			c10.5-1.8,22.3-4.8,19.2-10.6c-0.4-0.8-1.1-1.3-2-1.4c-3.9,0-7.7-1.8-12.1-1.7c-5.7,0.1-11.4,0.4-17.1,1c-8.6,1-17.1,2-25.7,3.1
			c4.5-2.2,8.7-5,12.5-8.3c3.1-2.5,4.5-6.9,0.1-8.9c-7.5-3.5-23,1.4-30.7,2.2c-10,1-20.1,2.1-30.2,2.6c-0.2-0.2-0.4-0.3-0.6-0.5
			c-7.8-6-20-6.6-31-5.6c0.1-0.5,0.1-1.1,0.2-1.7c0.2-2.9,0.8-7.2-2.3-9.4c-3.8-2.6-7.5,0.3-9.6,3c-2.5,3.1-4.2,6.8-5.1,10.7l0,0
			c-5.7-4.9-12.1-9.4-19.6-9.2c-7.8,0.2-4.7,7-0.3,13.2h-2c-6-3.7-12.5-6.7-19.2-9c-5.4-1.8-18.1-6.8-23.4-3
			c-2.6,1.9,1.5,5.6,7.3,9.5c-4.5-1.1-8.9-2.1-13.5-3s-18.1-4.9-21.1-0.5c-0.4,0.6,0.1,1.4,0.6,1.9c4.5,4.5,12.7,7.1,18.9,9.9
			c2.5,1.1,5,2.3,7.6,3.5c-0.1,0.1-0.2,0.2-0.3,0.4c-12.5-2.9-26.5-5-27.2-0.1c-0.4,2.7,2.4,5.3,6.5,7.6
			c-16.1-3.4-35.2-8.4-46.5-16.7c-1-0.8-2.8-0.8-2.6,0.6c0.6,6.2,8.7,12.6,13.8,16.7c1.3,1,2.7,2,4.2,3c-13-3.8-26.3-6.8-39.7-8.9
			C1982.1,301,1952.2,296.3,1957.6,305.6z"/>
		
			<linearGradient id="SVGID_42_" gradientUnits="userSpaceOnUse" x1="2403.8359" y1="513.6182" x2="2617.7959" y2="985.1182" gradientTransform="matrix(-1 0 0 -1 4586.9502 816)">
			<stop  offset="0" style="stop-color:#33431C"/>
			<stop  offset="1" style="stop-color:#FCEE5A"/>
		</linearGradient>
		<path class="st40" d="M2006.8,224c4.1,8.9,17.5,11.9,26.1,14.3c2.9,0.8,5.8,1.6,8.8,2.3c-0.9,0.1-1.8,0.3-2.7,0.5
			c-2.7,0.5-14.3,2-11.8,7.1c4,8.2,22.5,6.8,29.6,6.8c2.1,0,5.3,0.1,8.7,0.2l0,0c7.9,5.5,20.8,7,30.2,8.2c4.1,0.5,11.8,1.5,17.8,0.2
			c-1.4,1.3-2.6,2.6-3.8,4.1c-1,1.3,1.5,3.7,2.8,3.4c11.4-2.3,20.9-5.3,27.1-12.5c0.7,0,1.3,0,2,0c0,2.3,0.1,4.6,0.4,6.9
			c0.4,2.5,2.5,4.4,5.1,4.6c5.3,0.5,11.4-5.3,13.8-9.3c1.6-2.6,2.4-4.5,2.3-6.5c0.5,0.3,1,0.6,1.5,0.9c6.9,3.7,14.3,9.6,21.8,11.8
			c0.4,0.2,0.8,0.1,1.1-0.1c1.1-1.2,1-3.1,0.4-5c1.3,1.2,2.6,2.5,4.1,3.6c2.2,1.8,3.7,3.9,6.6,4.5c0.3,0,0.7-0.1,0.8-0.4
			c2.7-5.3-0.6-12.3-4.1-17.9c5.1,2.4,10.4,4.4,15.8,6c4.8,1.4,13,4.9,17.6,2.3c2.9-1.6-7.7-10.6-16.9-17.8
			c5.5,2.1,11.1,3.9,16.8,5.3c0.3,0.1,0.7,0,0.9-0.2c7.6,5.6,16.1,9.6,24,9.9c6,0.2,5.1-3.7,2.2-7.2c-0.9-1.1-1.8-2.3-2.6-3.4
			c2.9,1.3,5.7,2.5,8.3,3.6c3.7,1.6,16.5,9,20.4,4.9c0.3-0.3,0.4-0.8,0.2-1.2c-0.1-0.3-0.3-0.7-0.5-1c4.5,1.7,9.3,2.9,14.1,3.4
			c2.1-4.3,1.1-8.1-1.9-11.4c1-0.4,1.8-1.1,2.4-1.9c0.4-0.6-0.3-1.6-0.8-2c-8.6-7.8-22.7-9.9-35.4-11l-0.9-0.2
			c8.4-1.7,17.7-4.8,15.2-10.6c-0.3-0.6-0.8-1.4-1.6-1.4c-3.1,0-6.1-1.8-9.6-1.7c-4.5,0.1-9.1,0.4-13.6,1c-6.8,1-13.6,2.1-20.4,3.1
			c3.7-2.3,7-5.1,10-8.3c2.4-2.5,3.6-6.9,0.1-8.9c-6-3.5-18.3,1.4-24.4,2.2c-7.9,1-16,2.1-24,2.6c-0.1-0.1-0.3-0.3-0.5-0.5
			c-6.2-6-15.9-6.6-24.6-5.6c0-0.6,0.1-1.1,0.1-1.7c0.2-2.9,0.6-7.2-1.8-9.4c-3-2.6-6,0.2-7.6,2.9c-2,3.3-3.4,6.9-4.1,10.7l0,0
			c-4.5-4.9-9.6-9.4-15.6-9.2c-6.2,0.2-3.7,7-0.2,13.2h-1.6c-4.7-3.6-9.8-6.7-15.2-9c-4.3-1.8-14.4-6.8-18.6-3
			c-2.1,1.9,1.2,5.6,5.8,9.5c-3.6-1.1-7.1-2.1-10.7-3s-14.4-4.9-16.8-0.5c-0.3,0.6,0.1,1.4,0.5,1.9c3.6,4.5,10.1,7.1,15,9.9
			c2,1.1,4,2.3,6,3.5c-0.1,0.1-0.2,0.3-0.3,0.4c-9.9-2.9-21-5-21.6-0.1c-0.3,2.7,1.9,5.3,5.1,7.6c-12.8-3.4-27.9-8.4-36.9-16.7
			c-0.8-0.8-2.2-0.8-2.1,0.6c0.4,6.2,6.9,12.6,11,16.7c1.1,1,2.2,2,3.3,3c-10.3-3.8-20.8-6.8-31.5-8.9
			C2026.3,219.3,2002.6,214.6,2006.8,224z"/>
		
			<linearGradient id="SVGID_43_" gradientUnits="userSpaceOnUse" x1="2410.3674" y1="609.5977" x2="2577.6973" y2="978.3376" gradientTransform="matrix(-1 0 0 -1 4586.9502 816)">
			<stop  offset="0" style="stop-color:#33431C"/>
			<stop  offset="1" style="stop-color:#FCEE5A"/>
		</linearGradient>
		<path class="st41" d="M2047.4,142.3c2.9,8.9,12.6,11.9,18.8,14.3c2.1,0.8,4.2,1.6,6.4,2.3c-0.7,0.2-1.3,0.3-1.9,0.5
			c-2,0.5-10.3,2-8.5,7c2.9,8.2,16.2,6.8,21.3,6.8c1.5,0,3.8,0.1,6.3,0.2l0,0c5.7,5.5,15,7,21.7,8.2c3,0.5,8.5,1.5,12.8,0.2
			c-1,1.3-1.9,2.7-2.7,4.1c-0.7,1.3,1.1,3.7,2,3.4c8.2-2.3,15-5.3,19.5-12.5c0.5,0,1,0,1.4,0c0,2.3,0.1,4.6,0.3,6.9
			c0.3,2.5,1.9,4.4,3.7,4.6c3.8,0.5,8.2-5.3,10-9.3c1.1-2,1.6-4.2,1.6-6.5c0.4,0.3,0.7,0.6,1.1,0.8c4.9,3.7,10.3,9.6,15.7,11.8
			c0.2,0.1,0.6,0.2,0.8-0.1c0.8-1.2,0.8-3,0.3-5c1,1.2,1.9,2.5,2.9,3.6c1.6,1.8,2.7,3.9,4.7,4.5c0.2,0.1,0.5-0.1,0.6-0.4
			c2-5.3-0.4-12.4-3-17.9c3.6,2.4,7.4,4.4,11.4,6c3.4,1.4,9.3,4.9,12.7,2.2c2.1-1.6-5.5-10.6-12.1-17.7c3.9,2.1,8,3.9,12.1,5.3
			c0.2,0.1,0.5,0,0.6-0.2c5.4,5.6,11.6,9.6,17.3,9.9c4.3,0.2,3.7-3.7,1.6-7.2c-0.6-1.1-1.3-2.3-1.9-3.4c2,1.3,4.1,2.5,6,3.6
			c2.6,1.6,11.9,9,14.7,4.9c0.2-0.4,0.3-0.8,0.1-1.2c-0.1-0.3-0.2-0.7-0.4-1c3.2,1.7,6.6,2.8,10.1,3.4c1.4-3.8,0.9-8-1.4-11.4
			c0.7-0.5,1.3-1.1,1.8-1.9c0.3-0.6-0.2-1.6-0.5-2c-6.1-7.8-16.3-9.9-25.5-11l-0.7-0.2c6-1.7,12.8-4.8,11-10.6
			c-0.2-0.6-0.6-1.4-1.1-1.4c-2.2,0-4.4-1.8-6.9-1.7c-3.3,0.1-6.5,0.4-9.8,1c-4.9,1-9.8,2.1-14.7,3.1c2.7-2.4,5.2-5.2,7.2-8.3
			c1.7-2.5,2.6-6.9,0.1-8.9c-4.3-3.5-13.2,1.4-17.6,2.2c-5.7,1-11.5,2.2-17.3,2.6c-0.1-0.2-0.2-0.3-0.3-0.5
			c-4.4-6-11.4-6.6-17.7-5.6c0-0.5,0.1-1.1,0.1-1.7c0.1-2.9,0.5-7.2-1.3-9.4c-2.1-2.6-4.3,0.3-5.5,3c-1.5,3.4-2.5,7-2.9,10.7l0,0
			c-3.3-4.9-6.9-9.4-11.2-9.2s-2.7,7-0.2,13.2h-1.1c-3.2-3.5-6.9-6.6-11-9c-3.1-1.8-10.4-6.8-13.4-3c-1.5,1.9,0.9,5.6,4.1,9.5
			c-2.6-1.1-5.1-2.2-7.7-3s-10.3-4.9-12.1-0.5c-0.2,0.6,0,1.3,0.4,1.8c2.6,4.5,7.3,7.1,10.8,9.9c1.4,1.1,2.9,2.3,4.3,3.5
			c-0.1,0.1-0.1,0.3-0.2,0.4c-7.2-2.9-15.1-5-15.6-0.1c-0.3,2.7,1.4,5.3,3.7,7.6c-9.2-3.4-20.1-8.4-26.6-16.7
			c-0.6-0.8-1.6-0.8-1.5,0.6c0.3,6.2,5,12.6,7.9,16.7c0.8,1.1,1.6,2.1,2.4,3c-7.2-3.7-14.8-6.7-22.7-8.9
			C2061.4,137.7,2044.3,132.9,2047.4,142.3z"/>
		
			<linearGradient id="SVGID_44_" gradientUnits="userSpaceOnUse" x1="2343.4771" y1="658.2822" x2="2706.5771" y2="1130.5022" gradientTransform="matrix(-1 0 0 -1 4586.9502 816)">
			<stop  offset="0" style="stop-color:#33431C"/>
			<stop  offset="1" style="stop-color:#FCEE5A"/>
		</linearGradient>
		<path class="st42" d="M2092.2,86.2c3.4,2.7,9.9,3.4,15.6,3.8c-0.3,2.9,6.9,6,13.5,6.9c4.8,0.6,9.4-0.1,8.3-3.8
			c3.7,1.6,7.6,2.8,11.5,3.8c4.9,1.3,9.7,2.8,14.6,1.4c0.8-0.2,0.6-0.8,0.3-1.2s-0.7-0.7-1.1-1c7.1,1.8,14.4,3.2,21.7,4
			c3.5,0.4,22.4,2.8,23.9-1.5c0.7-2-1.8-3.6-5.6-4.9c1.6,0.1,3.3,0.2,4.9,0.2c4.1,0.1,8.2-0.1,12.2-0.4c-2.9-1.4-5.9-2.5-9-3.2
			c1.3-0.1,2.6-0.2,3.9-0.4c4.3,0.1,8.6-0.6,12.8-1.9c3.2-1.1,13.3-5.8,11.5-9.1c-0.2-0.4-1.2-1.2-1.9-1c-4,1.2-9.7,1.1-14.6,0.9
			c0.7-0.2,1.3-0.4,1.9-0.7c5.6-2.3,11.9-4.8,16.8-7.8c8.5-5.4,21-13.8,23-21.6c0.1-0.5-1-1.6-1.9-1.3c-14.6,3.8-27.6,7.6-43.4,9.1
			c-7,0.7-14.1,1.2-21.2,1.8c3.1-2.3,5.3-4.9,5.9-7.8c0.2-0.8-1.1-1.7-2.3-1.6c-2.9,0.3-4.9,1.9-7.4,2.8c-5.2,1.9-10.5,3.4-15.9,4.4
			c-2.3,0.4-4.6,0.8-7,1.2c1.9-3.9,2.8-7.8-1.5-7.2c-4.8,0.7-9.1,3.6-11.8,6.2c-1.3,1.2-2.5,2.6-3.6,4c-0.2,0.1-0.4,0.1-0.6,0.2
			c-0.2-1.1-0.8-2.1-1.6-2.8c-0.5-0.4-1.2-0.6-1.8-0.6c-3.5,0.5-5.2,3.6-6.1,6.8c-5.8,2.2-14.5,5.3-20.9,9.2
			c-7-2.1-16.5-3.4-17.4-0.7c-0.8,2.3,4.3,5,9.4,7C2096.8,78.8,2084.1,80,2092.2,86.2z"/>
		
			<linearGradient id="SVGID_45_" gradientUnits="userSpaceOnUse" x1="2188.2219" y1="478.0408" x2="2728.2119" y2="1180.3108" gradientTransform="matrix(-1 0 0 -1 4586.9502 816)">
			<stop  offset="0" style="stop-color:#33431C"/>
			<stop  offset="1" style="stop-color:#FCEE5A"/>
		</linearGradient>
		<path class="st43" d="M2102.8,24.5c1.3,0.7,2.8,1,4.2,1c4,0.1,8.1-0.3,12.1-1c-8.1,3.8-19.7,8.9-5.3,10.8c4,0.4,8-0.2,11.6-1.9
			c3.3-1.7,1.4-3.2,0.7-4.8c9.6,3.4,16.8,7.4,27,10.8c6.5,2.1,17.4,5.9,28.9,6.5c14.7,0.8,0-5-10.5-8.7c15.7,2.8,36.8,6.8,53,6
			c0.6,0,1.1-0.2,1.1-0.3c0-4.9-20.2-8.2-37.4-9c4.9-3.5,9-7.9,12.3-13c2.3-3.4,7.1-8.1,2.2-11.5c-7.2-5.1-23.4,1.7-32.4,4.7
			c1.6-2.2,4.8-4.2,6.6-6.5c1-1.3,2-2.4-1.7-3.4c-1.2-0.3-2.4-0.5-3.6-0.3c-3.2,0.6-5.7,2-8.4,2.9c-0.6-1.8-0.3-3.7-3.9-5.3
			c-0.8-0.3-1.7-0.5-2.6-0.5c2.9-4.2,0.8-9.2-1.6-13.1c-1.2-2-0.9-5.6-8.9-6.8c-0.5-0.1-1.1-0.1-1.6,0c-7.3,2-8.6,4.9-8.9,7.8
			c-4.8,2.4-9.6,4.8-11.9,7.3c-1.8,2-2.3,3.6-0.6,5.6c2,2.3,2.2,1.2-3.1,3.1s-10.9,4.9-4.4,7.1c4.1,1.4,9,1.8,14.4,2
			C2115.4,16.5,2095.8,20.1,2102.8,24.5z"/>
		
			<linearGradient id="SVGID_46_" gradientUnits="userSpaceOnUse" x1="4341.0093" y1="584.7825" x2="5210.689" y2="906.5925" gradientTransform="matrix(-1 0 0 -1 4586.9502 816)">
			<stop  offset="0" style="stop-color:#563114"/>
			<stop  offset="1" style="stop-color:#744D30"/>
		</linearGradient>
		<path class="st44" d="M87.5,760.5c-5.7,4-14.4,8.6-25.2,8.8c-8.5,0.2-14.4-2.6-15.4-0.6c-1.4,2.6,6.2,12.8,15.2,13.3
			c11.4,0.7,20.3-14.4,25.9-11.2c0.8,0.4,1.3,1.1,1.6,1.9c1.6,5-11,12.4-10.5,13.2c0.7,1.2,20.9-17.5,43.9-17.4
			c24.9,0.1,44.3,22.2,45.7,20.3s-18-18.3-16.4-20.3c0.4-0.5,2,0.1,5.3,1.3c4.8,1.7,6.9,4.1,18.3,6.7c17.1,3.9,37.1,3.9,38.6,0.7
			c0.8-1.7-3-5.7-36.5-16.8c-11.6-301.7-24.1-603.3-37.5-904.9c-4.3-95.8-8.6-191.6-13.1-287.4c-6.9,88.9-13.8,177.8-20.7,266.7
			C100.5,143.4,94,451.9,87.5,760.5z"/>
		
			<linearGradient id="SVGID_47_" gradientUnits="userSpaceOnUse" x1="123.1634" y1="397.592" x2="536.3835" y2="1308.212" gradientTransform="matrix(1 0 0 -1 -69.76 816)">
			<stop  offset="0" style="stop-color:#33431C"/>
			<stop  offset="1" style="stop-color:#FCEE5A"/>
		</linearGradient>
		<path class="st45" d="M376.3,265.1c-1.4,0.1-2.4,0.3-3,0.4c-22.3,3.1-44.3,7.4-66.1,12.8c2.4-1.4,4.8-2.8,7-4.3
			c8.6-5.9,22.1-15.2,23.1-24c0.2-1.9-2.7-1.9-4.4-0.8c-18.9,12-50.7,19.1-77.6,24c6.8-3.3,11.5-6.9,10.8-10.9
			c-1.3-7-24.5-4-45.4,0.1c-0.2-0.2-0.4-0.3-0.6-0.5c4.2-1.7,8.4-3.3,12.6-5c10.3-4,24-7.8,31.5-14.2c0.8-0.7,1.7-1.8,1-2.6
			c-5.1-6.4-27.8-0.6-35.2,0.7c-7.6,1.2-15.1,2.8-22.5,4.3c9.6-5.5,16.5-10.9,12.1-13.6c-8.8-5.4-30,1.8-39,4.3
			c-11.1,3.2-21.8,7.5-32,12.9h-3.4c7.4-8.9,12.6-18.7-0.5-18.9c-12.6-0.3-23.2,6.2-32.7,13.2l0,0c-1.5-5.8-4.4-11-8.5-15.4
			c-3.4-3.9-9.7-7.9-16-4.2c-5.2,3.1-4.2,9.4-3.9,13.5c0.1,0.8,0.2,1.6,0.3,2.4c-18.3-1.4-38.7-0.5-51.7,8c-0.4,0.2-0.7,0.5-1,0.7
			c-16.9-0.6-33.7-2.3-50.4-3.7c-12.8-1.1-38.7-8.2-51.2-3.1c-7.3,3-4.9,9.2,0.2,12.8c6.5,4.8,13.5,8.8,20.9,11.9
			c-14.3-1.5-28.6-3-42.9-4.4c-9.4-1-19-1.3-28.5-1.5c-7.2-0.2-13.5,2.5-20.1,2.5c-1.4,0.1-2.6,0.8-3.3,2
			c-5.3,8.3,14.4,12.7,32,15.2c-0.6,0.1-1.3,0.2-1.9,0.3c-26.8,1.7-56.5,4.7-74.5,15.8c-1,0.6-2.5,2-1.6,2.8
			c1.5,1.3,3.2,2.2,5.1,2.8c-6.2,4.8-8.4,10.2-4,16.4c10-0.8,19.9-2.4,29.6-4.9c-0.4,0.4-0.8,0.9-1.1,1.4c-0.4,0.6-0.2,1.3,0.3,1.7
			c0,0,0,0,0.1,0c8.3,5.9,35.2-4.7,42.9-7c5.5-1.6,11.4-3.4,17.4-5.2c-1.8,1.7-3.6,3.4-5.5,5c-6.1,5.1-8,10.7,4.6,10.3
			c16.6-0.4,34.6-6.2,50.5-14.2c0.5,0.4,1.2,0.5,1.9,0.3c11.9-2.2,23.9-4.6,35.4-7.7c-19.3,10.1-41.5,23.1-35.4,25.5
			c9.8,3.8,27-1.3,37-3.2c11.2-2.3,22.3-5.2,33.2-8.6c-7.4,7.9-14.4,18.1-8.7,25.7c0.4,0.5,1.1,0.7,1.7,0.6
			c6.1-0.9,9.1-3.9,13.8-6.5c3-1.6,5.7-3.4,8.5-5.2c-1.3,2.9-1.3,5.5,0.9,7.3c0.8,0.3,1.6,0.4,2.4,0.1c15.7-3.1,31.3-11.6,45.7-17
			c1.1-0.4,2.1-0.8,3.2-1.2c-0.2,2.8,1.3,5.6,4.7,9.3c5.2,5.7,17.9,14,29.1,13.3c5.3-0.3,10-2.9,10.7-6.5c0.6-3.2,0.9-6.5,0.8-9.8
			c1.4,0,2.7,0.1,4.2,0.1c13.1,10.3,32.9,14.7,56.9,17.9c2.9,0.4,8-3,5.9-4.9c-2.5-2.2-5.1-4.2-7.9-5.9c12.5,1.8,28.7,0.5,37.3-0.3
			c19.7-1.6,46.8-3.8,63.4-11.7c0,0,0.1,0,0.1-0.1c7.2,0,13.8-0.2,18.3-0.2c15,0,53.8,2,62.2-9.7c5.2-7.3-19.1-9.4-24.8-10.1
			c-1.9-0.3-3.8-0.4-5.7-0.7c6.3-1.1,12.5-2.2,18.6-3.3c17.6-3.3,55.5-13.7,54.8-20.5C417.6,266.6,395.5,263,376.3,265.1z"/>
		
			<linearGradient id="SVGID_48_" gradientUnits="userSpaceOnUse" x1="4428.2104" y1="549.8707" x2="4797.8506" y2="1364.4607" gradientTransform="matrix(-1 0 0 -1 4586.9502 816)">
			<stop  offset="0" style="stop-color:#33431C"/>
			<stop  offset="1" style="stop-color:#FCEE5A"/>
		</linearGradient>
		<path class="st46" d="M-157.1,134.4c7.4,12.8,31.6,17.1,47.2,20.5c5.2,1.1,10.6,2.3,16,3.3c-1.7,0.2-3.3,0.4-4.9,0.7
			c-4.9,0.8-25.8,2.8-21.3,10.1c7.2,11.7,40.7,9.8,53.6,9.7c3.9,0,9.5,0.2,15.7,0.2c0,0,0,0,0,0.1c14.3,8,37.6,10.1,54.6,11.7
			c7.4,0.7,21.4,2.1,32.1,0.3c-2.4,1.8-4.7,3.8-6.8,6c-1.8,1.9,2.6,5.3,5.1,4.9c20.7-3.3,37.7-7.6,49-17.9c1.3,0,2.4,0,3.6,0
			c-0.1,3.3,0.2,6.6,0.7,9.8c0.7,3.6,4.7,6.2,9.2,6.6c9.7,0.6,20.6-7.6,25.1-13.3c2.9-3.7,4.3-6.5,4.1-9.3c0.9,0.4,1.8,0.8,2.8,1.2
			c12.4,5.3,25.8,13.8,39.4,16.9c0.7,0.2,1.4,0.2,2.1-0.1c1.9-1.8,1.9-4.4,0.8-7.3c2.4,1.8,4.8,3.6,7.3,5.2
			c4.1,2.6,6.7,5.6,11.9,6.5c0.6,0.1,1.1-0.1,1.5-0.6c4.9-7.6-1.1-17.7-7.5-25.6c9.3,3.5,18.9,6.3,28.6,8.6c8.7,1.9,23.5,7,31.9,3.2
			c5.3-2.3-13.9-15.3-30.5-25.5c9.9,3.1,20.2,5.5,30.5,7.7c0.6,0.2,1.2,0.1,1.6-0.3c13.7,8.1,29.2,13.8,43.5,14.2
			c10.8,0.3,9.2-5.3,4-10.3c-1.6-1.6-3.2-3.2-4.7-4.9c5.1,1.9,10.3,3.6,15,5.2c6.6,2.4,29.8,12.9,37,7c0.5-0.4,0.7-1.2,0.3-1.8
			c-0.3-0.5-0.6-1-0.9-1.4c8.3,2.5,16.9,4.1,25.5,4.9c3.8-6.2,1.9-11.6-3.4-16.4c1.7-0.6,3.2-1.5,4.4-2.8c0.8-0.9-0.5-2.3-1.4-2.8
			c-15.5-11.2-41-14.2-64.1-15.8c-0.5-0.1-1.1-0.2-1.7-0.3c15.1-2.5,32.1-6.9,27.5-15.2c-0.5-1.1-1.6-1.9-2.8-2
			c-5.6,0-11.1-2.6-17.3-2.5c-8.2,0.2-16.4,0.5-24.5,1.5c-12.3,1.4-24.6,2.9-36.9,4.4c6.5-3.2,12.5-7.3,18-12
			c4.4-3.6,6.5-9.9,0.2-12.8c-10.8-5.1-33.1,2-44.1,3.1c-14.3,1.4-28.9,3.1-43.4,3.7c-0.3-0.2-0.5-0.5-0.9-0.7
			c-11.2-8.6-28.8-9.5-44.5-8c0.1-0.8,0.2-1.6,0.2-2.4c0.3-4.1,1.2-10.4-3.3-13.5c-5.4-3.7-10.8,0.3-13.7,4.2
			c-3.6,4.5-6.1,9.8-7.3,15.4l0,0c-8.2-7-17.3-13.4-28.2-13.2c-11.2,0.3-6.8,10-0.4,18.9h-2.8c-8.7-5.4-17.9-9.7-27.6-13
			c-7.7-2.6-26-9.7-33.6-4.3c-3.8,2.7,2.2,8.1,10.4,13.6c-6.4-1.6-12.8-3.1-19.4-4.3s-26-7.1-30.3-0.7c-0.6,0.9,0.2,2,0.9,2.7
			c6.4,6.5,18.2,10.2,27.1,14.2c3.7,1.6,7.3,3.3,10.9,5c-0.2,0.2-0.3,0.4-0.5,0.5C-5,121-25,118-26.1,125c-0.6,3.9,3.5,7.6,9.3,10.9
			c-23.1-4.9-50.5-12-66.8-24c-1.5-1.1-4-1.1-3.8,0.8c0.8,8.9,12.5,18.1,19.9,24c1.9,1.5,3.9,2.9,6,4.3c-18.7-5.5-37.8-9.7-57-12.8
			C-121.9,127.8-164.9,120.9-157.1,134.4z"/>
		
			<linearGradient id="SVGID_49_" gradientUnits="userSpaceOnUse" x1="4420.147" y1="686.297" x2="4727.4668" y2="1363.537" gradientTransform="matrix(-1 0 0 -1 4586.9502 816)">
			<stop  offset="0" style="stop-color:#33431C"/>
			<stop  offset="1" style="stop-color:#FCEE5A"/>
		</linearGradient>
		<path class="st47" d="M-86.4,17.1c5.8,12.8,25.1,17.1,37.5,20.5c4.1,1.1,8.4,2.3,12.7,3.3c-1.3,0.2-2.6,0.4-3.9,0.7
			c-3.9,0.8-20.5,2.8-16.9,10.1c5.7,11.7,32.3,9.8,42.5,9.7c3.1,0,7.6,0.2,12.5,0.2c0,0,0,0,0,0.1c11.3,8,29.8,10.1,43.3,11.7
			c5.9,0.7,17,2.1,25.5,0.3c-2,1.8-3.8,3.8-5.4,5.9c-1.4,1.9,2.1,5.3,4,4.9c16.4-3.3,30-7.6,38.9-17.9c1,0,1.9,0,2.9-0.1
			c-0.1,3.3,0.1,6.6,0.5,9.8c0.6,3.6,3.7,6.3,7.3,6.6c7.7,0.7,16.3-7.6,19.9-13.3c2.3-3.7,3.4-6.5,3.2-9.3c0.7,0.4,1.4,0.8,2.2,1.2
			c9.8,5.3,20.5,13.8,31.3,17c0.4,0.1,1.2,0.3,1.6-0.1c1.5-1.8,1.5-4.4,0.6-7.3c1.9,1.8,3.8,3.6,5.8,5.2c3.2,2.6,5.3,5.6,9.4,6.5
			c0.5,0.1,0.9-0.2,1.2-0.6c3.9-7.6-0.8-17.7-5.9-25.7c7.3,3.4,14.9,6.3,22.7,8.6c6.9,2,18.6,7,25.3,3.2c4.2-2.3-11-15.3-24.2-25.5
			c7.9,3,16,5.6,24.2,7.7c0.4,0.2,0.9,0,1.3-0.3c10.9,8,23.2,13.7,34.6,14.2c8.6,0.3,7.3-5.3,3.1-10.3c-1.3-1.5-2.5-3.2-3.8-5
			c4.1,1.9,8.2,3.6,11.9,5.2c5.3,2.3,23.6,12.9,29.3,7c0.4-0.5,0.6-1.2,0.3-1.8c-0.2-0.5-0.5-1-0.7-1.4c6.5,2.5,13.3,4.1,20.2,4.9
			c3-6.2,1.5-11.6-2.7-16.4c1.4-0.6,2.6-1.5,3.5-2.7c0.6-0.9-0.4-2.3-1.1-2.8C316,30,295.7,27,277.4,25.3c-0.4-0.1-0.9-0.2-1.3-0.3
			c12-2.5,25.5-6.9,21.9-15.2c-0.4-0.8-1.2-2-2.2-2c-4.5,0-8.8-2.6-13.7-2.5c-6.5,0.1-13,0.6-19.5,1.5c-9.8,1.4-19.5,2.9-29.3,4.4
			c5.3-3.3,10.1-7.4,14.3-11.9c3.5-3.6,5.1-9.9,0.1-12.8c-8.6-5.1-26.2,2-35,3.1c-11.4,1.4-22.9,3.1-34.5,3.7
			c-0.2-0.2-0.4-0.5-0.7-0.7c-8.9-8.6-22.8-9.5-35.3-8c0.1-0.8,0.1-1.6,0.2-2.4c0.3-4.1,0.9-10.4-2.6-13.5
			c-4.3-3.7-8.6,0.4-10.9,4.2c-2.9,4.7-4.9,9.9-5.8,15.4l0,0c-6.5-7-13.8-13.4-22.4-13.2c-8.9,0.3-5.4,10-0.3,18.9h-2.3
			c-6.7-5.2-14.1-9.6-21.9-12.9c-6.1-2.6-20.7-9.7-26.7-4.3c-3,2.7,1.7,8.1,8.3,13.6c-5.1-1.6-10.2-3.1-15.4-4.3s-20.6-7.1-24.1-0.7
			c-0.5,0.9,0.1,2,0.7,2.7C24-5.4,33.4-1.7,40.4,2.3c2.9,1.6,5.8,3.3,8.6,5c-0.1,0.2-0.3,0.4-0.4,0.5C34.4,3.7,18.5,0.7,17.6,7.7
			c-0.5,3.9,2.8,7.6,7.4,10.9c-18.4-4.9-40.1-12-53-24c-1.2-1.1-3.1-1.1-3,0.8c0.6,8.9,9.9,18.1,15.8,24c1.5,1.5,3.1,2.9,4.8,4.3
			c-14.7-5.4-29.9-9.7-45.3-12.7C-58.4,10.4-92.5,3.6-86.4,17.1z"/>
		<path class="st48" d="M1801.6,553.4c-41-19-61.7-28.1-62.2-27.2s21.8,13,66.8,36.4C1804.7,559.6,1803.1,556.5,1801.6,553.4z"/>
		<path class="st48" d="M2088.1,547.9c30.6-10.2,46-15.1,46.2-14.6c0.2,0.5-15.4,6.5-46.8,18c-16.8,11.7-25.3,17.4-25.4,17
			C2061.9,568,2070.6,561.2,2088.1,547.9z"/>
		<path class="st49" d="M2088.1,547.9c-24.7,13.1-50.9,22.9-78.1,29.2c-91,20.8-167.4-5.6-210.3-25.8l1.8,4.4
			c5.8,8.3,12.5,15.9,20,22.7c14.1,11.6,30.4,20,48,24.8c29.6,7.8,93.8,5.8,175.7-15.1L2088.1,547.9z"/>
		<path class="st50" d="M1799.7,551.3c0.6,1.5,1.3,3.2,2.1,5.3c0,0,1.4,3.4,3,6.8c1.9,4.2,67.4,89.6,161.2,73.1
			c67.5-11.9,109.7-69.4,123-89.4c-25.4,16.8-76.8,45.5-145.3,46.2C1876.3,593.8,1825.3,567.3,1799.7,551.3z"/>
		<path class="st49" d="M1919.5,614.5c4.2,1.8,8.6,3.1,13.1,4.1c9,2.2,18.4,2.4,27.6,0.8c6.7-1.3,13.1-3.6,19-6.9
			C1960.1,620.3,1938.9,621,1919.5,614.5L1919.5,614.5z"/>
		<path class="st49" d="M1877.2,609.1c13.6,13.2,32,20.3,50.9,19.5c-9.8-1.2-19.5-3.7-28.7-7.5C1891.6,618,1884.2,614,1877.2,609.1z
			"/>
		<path class="st51" d="M1692,520.8c0.8,1,10.1,11.6,25.6,10.7c9.5-0.6,18.3-5.5,23.8-13.3c1.9,6.9,2,14.2,0.5,21.2
			c-3.6,2.6-7.4,4.8-11.4,6.6c-3.2,1.6-6.5,2.8-10,3.6c-15.3,2.5-27.4-8.5-29.4-10.4c-0.8-3.9-0.9-7.8-0.5-11.7
			C1690.8,525.3,1691.3,523.1,1692,520.8z"/>
		<path class="st51" d="M2132.3,526.8c14.6,12.8,36.9,11.3,49.7-3.4c0.3-0.4,0.7-0.8,1-1.2c0.3,2.7,0.6,5.6,0.8,8.5
			c0.2,3.9,0.3,7.6,0.2,11c-7,5.1-15.3,8-23.9,8.5c-10.1,0.5-20.1-2.5-28.3-8.5c-0.3-3.2-0.4-6.3-0.2-9.5
			C2131.7,530.5,2132,528.6,2132.3,526.8z"/>
	</g>
</g>
<path class="st52" d="M1819.2,559.8c-2.2,2.5-4,5.4-5.1,8.5c-3.3,9.4,0.1,17.8,1.1,20.1c9,11.3,40.9,48.5,95.1,58
	c88.1,15.5,150.2-57,152.9-60.3c-3.5-0.9-6.6-2.9-8.9-5.7c-5.9-7.5-2.1-17.1-1.9-17.5c-19.3,10.6-66.4,33.1-129.1,29
	C1886.6,589.5,1850.9,578.5,1819.2,559.8z"/>
<path class="st53" d="M1815.3,561.4c-0.3,0.5,45.1,41.1,110.5,45.7c71.4,5,126.1-35.9,125.8-36.4s-54.4,38.7-125.8,33.8
	C1860.5,599.9,1815.6,560.9,1815.3,561.4z"/>
<path class="st53" d="M1813.7,570.4c-0.2,0.3,44.4,52.3,111.9,56.5c73.6,4.5,127.9-50.9,127.7-51.3s-56.1,53.7-128.7,49
	C1858.8,620.4,1814,570.1,1813.7,570.4z"/>
<path class="st53" d="M1814.3,580.1c-0.1,0.2,44.8,57.9,113.4,61.8c76,4.3,131.6-60.2,131.3-60.6s-58.5,63.7-133.6,58.7
	C1859.3,635.7,1814.4,579.9,1814.3,580.1z"/>
<path class="st53" d="M2051.8,563c-1.1,2-1.8,4.1-2,6.4c-0.5,3.5,0.3,7.1,2,10.2c3.4,5.9,9.7,7.2,10.8,7.5c0.4,0,0.8-0.1,1.1-0.5
	c0.3-0.4,0.4-0.8,0.3-1.3c-2.5-1.6-4.6-3.7-6.3-6.1c-3.2-4.9-4.6-10.7-4-16.5c-0.2-0.5-0.8-0.7-1.3-0.5
	C2052.1,562.4,2051.9,562.7,2051.8,563L2051.8,563z"/>
<path class="st53" d="M2052.4,563.9l81-35.4l-81.4,37.1"/>
<path class="st53" d="M1818.6,560.5l-77.3-42.2L1818.6,560.5z"/>
<path class="st53" d="M1817.4,558.5c-1.6,1.9-3,4.1-4,6.4c-4.2,9.2-2.1,18-1.1,21.5c-0.2,1.1,0.4,2.1,1.4,2.5
	c0.6,0.1,1.2-0.1,1.6-0.4c-3.6-9.6-1.9-20.3,4.5-28.3c0.2-0.8-0.2-1.6-0.9-1.9C1818.3,558.1,1817.8,558.2,1817.4,558.5z"/>
<path class="st54" d="M2167.5,569.3c-0.4-8.4-3.7-15-9.8-15.2s-9.8,6.3-10.7,14.6s0.8,32.9-0.2,66.3c-2.2,75.2-5.2,134.5-5.4,140.7
	s2.1,7.7,9.5,7.9s9.9-1.1,9.9-7.3s0.7-65.5,2.9-140.8C2164.7,602.1,2167.9,577.7,2167.5,569.3z"/>
<path class="st51" d="M2146.5,719l2-66.4c0.1-1.7,1.5-3.1,3.2-3l6.4,0.2c1.7,0.1,3.1,1.5,3,3.2l-2,66.4c-0.1,1.7-1.5,3.1-3.2,3
	l-6.4-0.2C2147.8,722.1,2146.4,720.7,2146.5,719z"/>
<path class="st50" d="M2160.4,571.5c-2-8.1-6.6-14-12.6-13s-8.4,8.1-7.6,16.4s7.3,32.1,13,65c12.7,74.2,21.6,132.8,22.5,139
	s3.6,7.1,10.9,5.9s9.4-3,8.3-9.2s-12.3-64.4-25-138.6C2164.1,604.2,2162.4,579.6,2160.4,571.5z"/>
<path class="st51" d="M2170.9,653.6l6.4-1.1c1.7-0.3,3.3,0.9,3.6,2.6l11.3,65.8c0.3,1.7-0.9,3.3-2.6,3.6l-6.4,1.1
	c-1.7,0.3-3.3-0.9-3.6-2.6l-11.3-65.8C2168,655.5,2169.2,653.9,2170.9,653.6z"/>
</svg>
